<mxfile host="app.diagrams.net" agent="Mozilla/5.0 (Windows NT 10.0; Win64; x64; rv:130.0) Gecko/20100101 Firefox/130.0" version="24.7.16">
  <diagram name="Page-1" id="i5LI792Ynd5tJVKV4r7k">
    <mxGraphModel dx="2440" dy="1340" grid="1" gridSize="10" guides="1" tooltips="1" connect="1" arrows="1" fold="1" page="1" pageScale="1" pageWidth="827" pageHeight="1169" math="1" shadow="0">
      <root>
        <mxCell id="0" />
        <mxCell id="1" parent="0" />
        <mxCell id="qWCm21guYHUEitxscZ2n-11" value="" style="shadow=0;dashed=0;html=1;strokeColor=none;fillColor=#4495D1;labelPosition=center;verticalLabelPosition=bottom;verticalAlign=top;align=center;outlineConnect=0;shape=mxgraph.veeam.globe;" parent="1" vertex="1">
          <mxGeometry x="167" y="500" width="240" height="240" as="geometry" />
        </mxCell>
        <mxCell id="jOYCfOh7vDJS4i7N_DWJ-1" value="" style="shape=image;verticalLabelPosition=bottom;labelBackgroundColor=default;verticalAlign=top;aspect=fixed;imageAspect=0;image=data:image/webp,UklGRqouAABXRUJQVlA4IJ4uAADQoQCdASooAVwBPiEQh0KhoQjcMogMAQJZ270kE8MA3KEjJtlfAAzFJo4J6O5z+Ur6LkT77usfOy508//+U/6Xs3/P3/V9xn9XPNb/dH3r/sX6rv13/aX2kPXv/XP8/6pv9666D0vfNL/zn70/Dh9t3xGfxz/Pf/jWSZVvJr734L+W7137I/4b/w/7H5XcXfajqL/N/v9+L/xX7U/lP94f8Tvx9ZHqHfkP88/v/5M/ln9P/3nbhcB/uPQR9p/sP+o/yX7zf5L4L/p/Qb7Vejf+wf73ynf2A83LyH9ffgO/Q3/W+4z6YP67/y/63/W/uT7zv0D/F/9D/I/6z9s/sa/mn9o/3H94/zv/k/yn////PlM9Jwf2Np66e306dCn8qFwoNFatnD7ddLXwlOhT+VC4UNTh8LDgjdyLxwIlAQMqSZ1YY6dCn8qFhlLZuiye9xZAwBifGv+59jwHxLEisOTHT2+nToS/nHeOoO1rgHRAu8zcZCze0aJVv8wmifI9frJuoLctiSrHULhQ2pxYPYcan9gsFOShgzgMG21ngDnOjXPP2/XP5ULhKYVVqBunDp96rgmNVugPBfk54GkHKAF/i4TWSR3u1Q0ngCAf8XT2+nTnrAk002Yo//Wn/NP/gZt3lni1rqAoj5ylzC1NCS2bcIo4Kk9PXT2+dxf5S5e6138FUI5MIU9kIZEs0ZULjM6+u4LLfPXmcNPHZjBwFfb6dOhT8TjCKkyr1C1Agv39wulS7pbyyn6v3Gqfj+MUNRCVommsIffw3LEYXANz5l09vp058KkqEawXLE5XH1j0Xyuey4rkFt3xhkswR4ApSGEfD+fG2fWAV7Yaqfd22qqLIOpgpfbKdQuEpgkK8V0xKCW7OdW+ygYvtFGEiuQMxfp/ZM3dCnDUPjzVs8u0+E2s7TYhaIGLAjE7IerEa3OKgQfvVoVhZ4W/JZU8w60kdvDNixhxdINb9Xagj3YX/98hCX3xVbTwJdTPC7qtHPyU8YEKJ6u3kXvbGuVm+BrtfvTksptBclT8dgCumNazfFtn8Bn2F6tJVHmGgMa9sm9hJLjnyqPwHowx0mhgUzaiazNLzqlFCeFXIzS/xMVKix83h28UL6zaAUmiLcuvocJ1A12z+Zo1XewMwTiFvYND/mtrQ4zdp11z7Y8y5mekAq1tUBlf6p/rn3uLLbHzIdh7zIQ/d4XGLHH6HSrpmu7kZ3YP1juySRQ86wO0v/289Ztu1o+gP2R8C7m174NyGnvR7ESgT94lYNxUdghQwIjCWi2pRE3iW1u00Df9nqn8ZWxbWOQDs0aASBzAl9l29+rT3U8wlspT7cN19cxU1S+qEd6+rBbT57+OhyZaL+c06Jna8qV1woan1s43q1Ic2L1WorwWMUzBWgSXNcyRg31SXGXJ74y00ss3mYZQARXYYGisbsq63h1IdQC3npf37M4GjH83SrUgVt5Z0CHvp1CxFnWICmMbx+GpZVBV21cU4h/xWSZfTImigQ+zyaQ6BLJvtbtqN1OsShDj0PJBhTEAe2Qtdta/nXqHxpSWLoQkeksYkgPf2NtVmSqm5NkOcgQN7Jr506l//7klVL1y15HzyZCyV+MWnroYpHP53iXiJNe+xdOIvIr718qnUAntdPZsv0viiLfgFpuzTe8P+uf2Y53dJmNc160NJOp5jtxOyWmc4os96y7oepNtPb6bBlWRONFjqB9w81wfBQ2uNp66e306dCn8qFeAAP7+pxAAAEP/h5qso/cunx1kzyteCtSyYAEvHjmNcEDAREAv/ZTIaSnNzI+sWJZfflEcVerO5CpeWJdmQI6mXK3PwxZrpQxYHufqqGGLXTrBU+UYpsbMI2MuDTR97KKJ0YWQADbIB6TCrHJlvq6dDvbURUqZe4Cw+PESSAF4l4dGw4Jkjm9vp2OTW7uTx2f5ff82xcGgLvf6yLQHkxS35WusuhAhIDKVapwjC29/haRXjbkz9xASc76zIXqdKPiAeTId52fOgF9P7H/huVFp/uj9tPSXdFmsXubTGguBaE6VqqJGTY4k+k1eS5BR3DMGlQo8OvmAjJrg+5mc5NnFpnG9scNaSF8Qobi1GyFiuL6STX0hVbNQRo5JgfeapEQ8km1Nqo2wqPsdg8kXXUVmdJ3TkGPGxSSwyIqRCJylTd6ZNFVFWf37wzM8snTlinvmIENiE1MW49GFcioYAaeYMr7mnAJQBVtqKXLmqsfcH0xAAAPLiTuLNobK5zhW3fwPKkWnaHNMQvgPKr5RVD41NyE+Bf/ovzTf5zyD6SHixL9ENN4xUwMINIVsw0UCh4+iQMrJ0lw3FD7huucC7WJmMONhdfOgDtDmkHrKdw5wnw8JOJ6OXhIF/mgQ6jfxSLH8vGfoRiEYoWGjkZOkiPFo9ZEMe8ooUTjTe5Na5mmfaUeJjcLVD+GMXsUGgdWuocdV7WjS2Q2H9XvowlkQxstJb287/1BsHVlpnJ+fnpM28eMugFIbqHSLPFLnOkzykGqLDeAAXSR5fmjM0AF/ZdDcg+Fn4rf4pQQdTMWYMjGmzcz7nvbMoRAvdUttARk5iMwGRXDT0o1pAQJV1tEAgaUj/hZwCNpWuUMLjEJBIIeipczrHA1WhHtZygo+ZqFnYp7hsUvn7pp4VbCSVyfK10OuWXfXJgKJULFguGiAJxwxs8rCGHmitEANw9WhLK6MGHC19D1BZsk3IIM89WcACfSJNt39PaMepo0FCu+roY3maBNpQmYu3KcNb/Nj+n6+0gQu2LzlHfICc0xYHn6WtYewtTGkBppfIRMrfNKwVC6VPOO8UJrN8v5R5AXFks28FtVBuvhrMvRs6UDhbgDnBcCXmiumuaE4rGh2bZJNJNOar5qpbHgslifkPmucyOZvHlvu+SGlcyTivCkywGq9LJFUR9TdfM/Cromu/f2GvUBV7XuU2pbvaUs0nwJQlKr6jTPBJenUW5RrxfTt3cRyJzwDaIE0ySNmq9ZlqcoQWmg1u9jnPYHZUvdE9nWnSbnbF6UaRy7OWI86vHF8ZWAihCKWjNxQLuTFfJaIcFoW+KFpUtmOs5GQ92An+kmbwCb0E98aNxkA/m3Ql3SXkY9e60eS7rm0ZjNy5Zd0trk1zsV60u0+UqBMhwrQzNbXxb74Nnp3K+p2JgSMQPX2759TUbOwM22YGmiXDDxKRvP5ugl1AyGb46t+FSZ5HD5pgzp3O6Uwr/JWXICuShakkoPvHY+suly+ZIpFVc2Kv3BUbSm5y6xft8COzET0tkNhbum0mA5/yjgrY+lo4e+P2a348HjW2wKARIIfyv0Ard7qqovN2geasgVA57zwnJE5nZ2qA0icFvOIbhslFst8t+G0m5n6m4u0mgZQXH3MNBqsKyFUi1J4okGCWrBuPUMi23VoHYbJJ9e3s0u84kyfsO/pvWtc/vE1AApZVzUQzaYGJhuqHl4rnBuYTDpKZvcN/UBUAxu4hp06wiL2UIrVuWcVlEc8PMXvj0snKIDrOmkHlpVxCVPPxqmVJOQgqcMPdYVFJn8S+mRD2o+JFmJasd02B57ETSLpFJUCnDjsSBeRFkLfufqD0jr8w74DDNae6qHXZMsu2sI0eJvk8RXbU3CNUW9HOj5pxpQcNMVYtXzfxF6Dee8NKS3ZjcbpFmDlEyDjFOTVVKcRX/70q5lPqDHzpW8XcGTsFMe0EleILIedWzTqObcysAueToneE4u8hUkWMeQQjjattIVvbFWhrRV4kKI7hqIHLAXuJ94SHQCv0IJqzTdYbWK0ZlXWry+CVYwO3myuC2RHIMyl6Zl3LlLvNvLjfHiXb+BuHBRO3qg/npwkf+e9GVZ0KKZbl//RGyKPw8rKbcUvXFCYqclSlxvHLQmvNVpLryOy6ePNfglDakTp3rko7hioqIGPKdPDsdH0tdFkN6jqcVVFPDzW6nUc/M/xUc/RJnNQfuWLl++1XQNr5nEE3YSrIVxqGNd4qEEXZZz5RbGY+HIYL3hGSHos+d69a5szJqwS9kZVyGJy1DoB0mAeJPpdseyqffxYwvkOhsNGdsACE0nnvZSjT4HGkFoWrdqdiNlEQeHAB7ZvoY2QSw5zDiMKq7p6WbD9wN6uXGT5P4SslxSirPLbdutSkvzvXlpEHT6LWlHSGU2aDvrUcLQLc8UobOc00E1aLBfAFu9N6RxnoTPinvNSHi6MdIEXJo9QmTi5WG2XVUhpZ+me68KYcYk+snII8QNsPaoDht44gaiSUiGw9lKBdzxTEAvuYDhNI1dF+vf5V5pPzLJJkeaHzJdI0PE86SYyK3/Au8aztO8azuNbGVJuS2ulCl/1+QbPjmdv+3LTwmNGEGgimSLpbPC910i2s3QZlLTjc273/itGEhZaWLR5dN+IcgvdTbiulhqSwRdlJWjCciFLkKMDvBgYj2F4ux53ZhEpcpTJQPyEDveqUnf3IdpuKaYjcqLpo23MP0avVTEYvYjuLQWpy2eMRwegUdPkvkh0rl+ipWC6aBJEgLdjXbN191lSBgeH1sjU1emnIkk1x3rtu8ZU8KHyZlgRnqhyY0DyhJUbDuPVNO1Z+kPLJYFQPwnD6JuLmf1IRDUa37pf+stXcw6tuDCboqxbMIu+arxi9SAV815DwX6VkmZcFKdtOA7BEhlqTaLJe17BeaVPdBSuSXhBhiDKa+r9yILJnagdrvO6UyendXZ/8l45Ki8SWqahPj+2ARpucmTqBd2BOeTaIB/ts06+mXM30qWHFxJ/HjVZrlNZD6S8ihghjJYg3TLFwrVtyxSlLTu9e4pGsC5Jgc8nH2jM/t93wAIMMNEjapT/WEmVb9MeO+U807mmhOjfb9b1jQCymXJoHMSlo9qZ/5jJo1LUzr0ApTw5BIzTzYtxzS7pMGTz33zQC8WdC7zrWfCmUIPr2FAwHVC6z+NomSZ6p5xcapOWk4ccnapzg+XKEcuM1eoIag2ZRzmqFOBanKw4knXjg+M8AagCyYwsQ9pQLMqIsAF34i4AfpmTRRoJhxphiAzncxw7+Pi8kn/lazc2OZa72W+4yZoBUwMNw/cfHx+GCrrYvGUGtjPp2qBH68Fu1tS+UvczY1mxDyrvCcjPURoOJOldSGa3ALgP/011jcOlJfERlGYt4C5wUhJvJxJ89mBJm3HPg7LD/JwJTnxxpNWzxNf6tJFUR4Zq8IR8CeERGVf2pUvhbAJ52x+KEXph/sLx5bA9nmxE8OLV0n23jPK9xR7YPejgFy8KiCbUX9pXkvlrRTr2IaDoEzC6BUufQFYr1tb87/3bVtN5I/R8lTIQcbv0jcfhSWiihAxQfYKceXGhC/72zvyqo5p/t4KzUvFUhyvmGmL/JaJlghUxOeeDPN14ftV6X29fF4utCKR+KHfncc9vW7wGkoQTnijYlvJlbqp5/PZO1XnBqxmuRnippPIwKWGDRH9I+zc7fJ1y820OT8Y8qhZOnMQjDEDWMxALgEvVcI8nex2pOBOcOvDGKNSnplN82epn0diJBXJq5ohsOJELd5wx97WeYksDtoSEaKY/IVDwIaKoTvAhYkLavapB0DFcGWjo0E4f/y9D/FR96bdAAjJbyHgsFJX8hZL0XJ38YYmQy9H1TJwz5r+f82/+KijR0D+jwOj8TD/kIt1yhGj8pJJq+Zkb7ZFFtPR+Z3MfDy2p2qfHm/oM3qIgZW86uvpq9l98HamtvC7yhICFnh31Laj7t5bRJYXM02FJEB3ZlBavTfSxRWjFO5Gxo7uzsaGra8a51/CA1Qc7fB3fYw75wzzIwth/AmxdYGJAIPBr6EamWvtGcG+A49vPZZtkCZTZ3afQakcrFjqd+BfDZEJrykE+caWzhKiNwZ+++jKUieCAe8e+ti2TW+d9YiH0lYABJMrRkDRuVjYy18vK0ut5tiJjv4gKrnO+o2BWoDW5U3jmeiHUHAjVjMCF735Hn0w+AXJp60mB9OD1/z+xh5oehD3sxgZCcZfL6f4/AeP6djNNqSC60AIAiqvQ0Cc+hDxwCPNZ04bjxl8la90gkFsSlae6/qx/uCVUh7NVMFkP79R5c4J76Mgks+lIlwBPMHqpDNJ+2Mks0oKvO/Q0/IyjGpCpV+DaTJFFIncoaHYKH4V/jJqrHiUxXeTZKjJcto4lHMHKxjinPr3qItwuTfFVTf6Ms2fEcy6e3Oq0XASazq/R/KNm1NfpjNugmtKtCbAEbxb22m4T4pdixcmd5bpdRolXsaGq4CqWUHJdwpAs6lQziuDbcYsEPiUdVkgXQk1cev0xBIcavSR6wSsqO4w7LDt0/1JuRFkINWZX2AsdceVd6BqFROOyGGNs0nBQEdicvX9kMVvFGogCN0Ko1qFuEtkm8vpRiJH/7XPKXpDoacfw26uproM5McoeRZ+VihS5DHmFKiHkCRisBrPq5EHIB1Fd7Dvyc9lWOnW0uaexq3GN5CCmNBUAwiMaaxr0wvttQCBCQ1+QGZ1+PhbepUlKR20KaeOB9rCHRJ1K8PNw5LRYZme0LLaJr94xG6xUvkAdglHAcjSfEkWfP5WrZ5b5qE+yvvOiNx/zejjvs7IqMZRZAKgO5YioUsvjOXZB4REQJbh7aqeM0fE0a3g+VFhosso+rf3X36qiNJQCYNMHwP26qwt5tj9fFu6tX2W3RuC5DWXUJ2C+lB2heGAFLU/TCQVNFL2e45A84PgqQs/eQUaD4kD24XS4I+cCu3UATBWVNpOlam0tyl/qyItqzuXQe7fpuUK/d82fH1fKaw1hqb1wg5loxzTn36KIzrT72Z5MgPUrJMZi2ver/PRFB2gJ6UumMOB5K63T0wKCwbnDAJC/MRI8jSooiqy4tjzVy1/jA8aN98k5Ezadn58zxYMeAiCo+6AzRQ/3qpS3LdTdgKcglozByDPgo2lMaQyNTmaMHff7hlG/un9NYp9xxLU5hIBmjTTowYZaI1JJdJreAJA2EZXy9WOn0dDhcDDZ1pT8QKZd8+O1sYDAW6BlMFfiDkGx4qfbw6MJzSXf1rw5dEjVUT+vTQ06E2pJ+qeEB+L6RA86BpEQa7TdXKGefPUqEHQZDAWWGa/Ru1B8TdgW/lhSSYvxb4xSSV+PAila5XIrwq2N0NQRQDaBOYTSEBhvB5uxmpN8Oun/EAJ1nmjjjT8woe1+JbNzJfLMICFAuP/jcPLKP9TtEE1QlX6RIjs3ntMARIq3FKpnA/H04d11D1fvWqPUyQ0R9zBOJngUrZmV/GErDhXp4R9A/nk+XXzNK3pZudSQZvrOiBQMr+Fr+dY8DiTQ1vyseQjlkUhtqd8qnmf+K8o9yf7i0yxlpsjXwve/jpsAxDHKANV0wOFYDBk6ndzuR+rg21s5Fx+wnDmX42Ybx4eO3OuOgJ8o30YHJq11q/GClOiyDV2J7pHmrro0REUhQcRbyO8zEJl+MoMRS/qzkZSQoj54aOoYtIi42xbyVgLHjG0VZhEJWrQdMAuTNW4GUXyzkEXTFhdtfMgyiZPe6eUlmpamZwEzyXLWRznTHRCXielObxY9tJO/myuJ0GLH/EwxzJSGLCQghvlNs4biI3zgLe1itq204mLdT6Jwyp7DxaJJaSJu0109V5nwAOkWGFrHgzS7cQVmWfhCS8dLova269JgcQ9z4s93wHKjPI1SewpyXXdAruilfscgcfJBJQ2cyCFvR081/vgUF8PrToG30ke599JFr3q2rwL1HS4AptVz0dsOXPuz8GPk4S1DmGfcY59SI/TmGfL6auZUHvObtQDn3ol6vARHfT+DPgeofClaBjM+hzEuNZTIuv3TXk29cGP/s/hnSaTfc/plEccvFXY2SZDn+jwVO27QguZSzW56dWmXmk8VIIgWTWk5eldVsE84q62iAITNhFC7jYVHAfvZAz3W2p6h4kWCS5yvOaCz1C5Fx7KhRjMOJdAlt/WsiR+aDD2ilqmzT/yF2ISQyKcs6C4cL/INYGGZiMi83Dq2k/SMZEl4o985/hAiaSXz88lHyfQv1UD4EsJbAQTT8pr3BnF+cPCd5UfZE7PjHYfQ5CkeJ1qzp1KI9X9A98e8NjQ71xfmJnj81Dxr4nyvYSYwO9FDbCkVa/0N7cB4/wwbjHN2SvXBcagXW+Mj4805742AnuLCuA/qdFA8ez95HaktgIje+U+7aJZK6U2l1QN0SNU1u14X3faPDL9uRgDSU8NDY01UTCaNauleMDMn9vO7EC1b2zlToAMv6X98XxPTs0nYkSXA05/7kRddvVi2edi0A7OwXrzZ6AnU0VPEZJWI4oo6F0iu7aYTIPtlN4vqz8n5B4YQkWYWpXHxXtxsxrOglstd0faqC9jQeWuHrQ+vaf1pGXbRZrPDkOOb9nXKUxVxaoPFsF62xHl0I5cG2sbmDgjHB9i6YMOshRk5xP0CNlmb9kozRwzM9IfKpE7INXHMoLu2zsDNCU7+6/gJA2vBMg8qls5vtss3pTXI7nj4nJrZSuXnDz+kyYkisfrYjp/iwzSqLxR5Ukfhe0oiw3/sTvySYT94YTxtFvypCYNnfO5yXvvLmR5wtvkhroOMSwV4gG3qFGpG8q2NiyPTUQQVvz4wY8MKsfDTnyINHcm1ZnNA8HIKHBf9ooH0F29ol8dYzeYEQXs0b8qS7qGRJMf+qBOwtf6+jkWPrFxVT0crkwq1FLuf0sq2D5sZtFAGzKR3UTF1DSzZKRteFv2gypwIKr4FvCRAEc+DeREAdBfTpg8u0nOB6CfBdyaMkatet0TFriYunqdRSvLPaf1atvMnjZsF+tCI1aDQdlBfw7YLU+G9e4UglRoXvJv7SA2beF+XX6csl9KFgTBMBRu+syzBpVMvIvZ8nXty33p2eF6a4arD67RSJXnOVNnGzoMpqclvIZmO6BtDBbp60RGZF3DH4CrutbG4dReSewsN4axQpMgUzSMTtw8xg6s64g/dwH9FbwqZTcUnQjv2dDo2ZHEIOdcR1vUsKvaV4dhtHfSBMQYt6q+kF5goU8aBK+I2TbRW83LD7xHfq1mOjmuP1F+l8mxtdeYEU64bsmvLcbDQz2LOPX3fCuFB/P4KGhhIb0EPH+Y3S8wYPBNJgyavJYcUNDul1rTwXQ2yFXB75UMID4S5XNRu1vzHFIrpvigjII2t+MT0r2xcQ1vMS6aeTz9rfvkdQToU+MelIC/hw14A7VB+HBsbO+h2a7UqNsY9zAiqvmgh3oVPougZM36rZ11jge6G6NHP+ZjgZjYA4IzUeSs/XhbJ7EozyGvF+ZzJ+vkoujjXkdLXr64/0F/p0yN42oILzK1xnQr8rD8ddL2ZgP4sRpMmRdiIU1zcoF41ykgeeaL80I3SM+RBXb+PRNi6KE+hEGzMswCO3RwOGt2C72EqrkRGsuKUGBLIQZ2/2mGkgKEcYRPMZHb9+SzWJquup9lCOwJAr1PvDWfgvgJgPtz/A5GMl8qA9gg6YVJadB23trclSL2gjc3yGEX+4zFHR1ftrNcaWksYqz+8z7+/RuMaktvLYV36VH1DVfQIVDIacDeiPs2eNphKfYuV7KViJ96weUbIE7UgZK0x6Z4ySSqNgCdtPZLU0rdjWFWggyYAMlduS3RdTK35z0uXAPCrW81GqY9CukZ0roLYqbNpWvc1UaguE8Ae2DQj7lvG+bEu0l4Gk0yA//BWNWCyyw2YDYcx2eWKbgSGDaWKBqrzDFzhWP6O8ti/pPDfTuyIoALMD9m8pEV4POh9qVQtiVFpE3meVv4T+vQgCej75XLMEgUh2BWIP+CYrDWsKxV6TwQigxI/R7g1cl4H7QTE0SII8sGo4T5Jdcqz1sYJOqdXsHl5v7zaUnZ3JSqz5rHbfONUoGHatVEabzH3JPeP/sTpapkV2wr7YOW6G11neQkmVT/snh064PyNZvf76XAB+sEv3m4muV2uxk7HHRyJextvLKT9YQKlDdX9NNadx09baoFXvlC3ySQutxAF70RPAaaeQ+rrywKpHqE4jM1Jev6JkpVhC8nwQ3AwvIpBoH9E+gwLDv77mYWRmK5vkTnyqaT4y7LU0esFFGJp5rQuDdDFv7Bpswu0DGDL52yxEnpepotpooeXhUcxGWJizNf24Aiv9GYwS8FJZ6UC4LN4IuUGSSMJuprfcs5mCCvizgCj/PdlpksCtxVEqp9LNWy5AlUtxJ/sI7gm4UWXenC99F+vlCxdvXz5CHHMTxcqCUeMYW4BgOqtSw/s0i9pjHJADIWUT6irLsT6Tp5K06sBkyAB0ZMeg+c9DTBWFNoXo6dHoUP1V7o8aHCrNByW5BvzkkJlmI9SK6PXe79+wDu1wP81PMkWQcBW5lJMNHS/6PnI6+w3wyYGrlL29X+ege8CmJSrAfvFmJ3FLYNrrJckX+Fv8MUYko2IJIo+BylzeT3OxM536wtQQauXNTkW2DoDTuUBzbqCZG9ZaMh6mIfBGgLiY45kmmd5AR2yCrJ5HUFIh6dtW3brZrOJc3P9zwaSqWZBAAuxHwjdS2Wr+Z5dWxK+JSndEhoIzewAfuVhENmuXHLUyJUWpnLg5qg/0DXUlZzMotfSGELMhVIm+/dnQz38ACfcAZnDbbSIKyCXDNe08FBQRCWttgqyjTClZt5Y+DfJCGY6Dqf/3PDCAGjW4/Va/fhnFVr7v5/yLXWReAcXPLCZ6P+h3XfMAPMj7QAHC1Oc3VEGx7Fm6yEEk4rqHknOO9X97Do7SCG3grYqFSyNuniyCMT5E7z3CuCiGMVKGthqpnIRpObRVdeSFFc4NKw6wZ4ykUS66jOMzy8Wl35IjQdjyWVGfy9+pPCGBNHP5pe1lCWkBFam3lv41YzPsggtVqcKcBhWlaIzvVfk2IWMx5KQTSWkVbfVRp6j3xzDKhVjXC0CDgln3UvovG72pIg6g7+kjGbXFk9F8ldb0pWsudNhjytVdm3mAev7vq1uDcLFoGxKMnvhdk1zWt92/ynzOlW+Zo4+ebgZvYd+s0f2vtNyJEHhXi8tqgHZSXshMWmZ4t61Kw2YIhKKoJch/4O7OP3Qa2rt2iTyVFfnuJzem3wjmj2YT0Idq4AGJ0RBpdYAfIc1NjlYVEholYMItHE1JV4S8/W+alVUkCmZR3O0cSrjry1EpcWLo4Ktn/9Bf0Cm280xj5qpoZ3zuyBcfrWWa9ektZIkPwnjucyyI6mE8IjFVbWGK+9/lMvSlAFonfVWLD3ouHu/nElh4IJ4Uybf+y+mmj/Zw3wvFTVvCc8bto/ljT77oGVzMB60364XPeIjiLcnbfnZkEWSjG7hNOqRbeeLKaqra9RjPD6IRV3h1mmO8Lzif3I9e90yFMPYCL9bj4RWlhURPIbwL0hIzKF6kHKP+QN1WKRgBetnXAO9odZhQP3x55rAiPE/Ohwmtw5p+RUO6CK+AhOS9vVzJ3dGAC/qBupDAsEChT3HYFDCPukPe+0bzyMCbbwydtm7fIqBPfBWh+c2tT/xL+vxpMPcUp5FxGSQIG+VeKkdAamfa3CVQuJ3+LCuPZXFUVZBbDz/XK+9Z8UieKAKoj9z3/VQe5rET0h5c2d78+AOO94ZTNApaPX1OVWcrBFNjX+LjxcYMWZ7q51nBa+u3DsBz92ajWNb6lt2S+j1cb2WxTFfTKhjmMg9GdYZHQ2HrxxyqjmqlI53V7qjxDs1WCsIt8ojJokbnrXwfBW+noBpMf2HaHsPooUgyEp56UFIFFBlC+5hahvhQxfuuoqameaCRnRpf2evjOywb4gofuGN1Yrjq/i/jaAa/PklcSDMAiPETdiS6gz2lt9zv2Mnoz/QB9wSKrqn2h0dg15z77KAHqtji9ywLsjdyuncNbaj3oPUUDYrAhRh8uKet/KGjfzjX3woYZkMD0k7kV2ewvnIA6yj4YfrZW87eE5V+7oN33f1P4FyPjvVvwK5/GSd7faCnKyM+CSdFcXtpn1PNUDx63hj8BCdlTtX4hYpyB5oe5be+JHIb+dzbjragF4Z+TIr8P3ud+43EifxPYjz/VqvszPy+ZkY3DBh5sCkHc3LVt9O/hOy7F+0wjPVPSljLAu9/ebUY6asoVffWkRlqOoDL89C6OrOZq1j8iSVe9Qx4lbuz17zoP2aysCvt4+O6QihqsDNUiJpqrsPdAq0U20j3OuKEfrn3IRnWAf1DXQPMib/4RdHeI1U+CYGWui+F39yUbq3KIzGfjbCTHSU1MZN5UgIj00iNckOocYz8zO6UJRptWbf2cRdkMGLUefQe4LHtdFsqDHBoEC59nUZ9D1G6uLIJ0ADxMDYGb07QIzwx36ZBOYjNha2X2y5059QIUttAlK4Z2SAEHV5Bus27osPXotnIJzXs4TkAAVe1hji9WRlzem0f00s1DR/i/mWdIRmsrAguTXUPQ81wAzhVvYlU3vYHtDBF2Oa8dQfi6NtVrB3YPHj0WjcvZK5kONcWggwSQBtHVxfAGCsvEmt1RaT+aSNB7VaiQyDDqws5I3emNMIG6LoJtEqCLTTQv/i6YahJmucEX94LbqFWRxtypGgssTtaIEfa4u8hDddZWOCBCq639+3KVNOJfBteBRA4PT+KNvk0VvUHShplvLI0kqUgJenSDplrFIiu/zcIFfRObR8vQs0Zb4H/uaRiz1B7Y1JwaAfOLNczkr1JtOpPO8H6fe2J/2HeJfdX+IuhuEsaghAiyuvTFrC5V3VV9mkeyKaDBgwx1p+T9+1xTZjdlQsNU4ZIpwh8nbkZrECxGLBVWNFyVeEbtuyNk1HaXaaCc4dqOWzm7qoyhdmPe7ys1LZJCVipJ7PcaPUjW9PiMejHLKwfKx4RxD9kXTaFhOhp6EdI9RHi7ssb5r/RqvML/DVLVzqO+3LAQMlAWcP9TSCSweXXLV2HuOr8fSJz1WWvh2XZWZlNQ0E3BTRs0i53YiYy1zRd3UhLJg2FOV8s00ljDrD+8VLp5XUrtBa8DQvm6HUavw1a8oSx82+TvTeVKwqmnbBcox43sP6zVTR0ciUYMEFAdG8DHAeKk2vgCchgnpQU56D5lczJfRkwpNCHPbxBIl0juOnPYsEpMsFkt6l6KfgHDWIqOM0r8Gp5QtUnyrU2iWFVNIMG2ubzyYxFU0cXk/QCFU0LHT7DfJC0cEZ59HyNeiFKbsrpvcvJ/ALPYVbXE7DLIfex3+8f3EZfRlTWTVZn+kc7h46+/ok4LWILgxGhOkgeO7xv4jLtpG0FnnoQABpmmG3zxxgLP3cBpgL2eJE1R9YyuLnoR6lUGG1FYmXY7HCZDbOLRIIW2ndpt5LiK6meZOxC3oaJfRDmbx9J4nlJYFFpTYFSANo5gReZPpXNz7FHmqbvIJrQ75J0CVffy84VhZ81230VyMXxqToOh7nL+gZqUZVgwbk0SXje59ozH9QXtS2P8UsW3hp/FdkNsiwU7IF+SBMSRWps8Cy1B3kUw6khl/RBfLWZTUX4TR+6/0vgcxq0rrwPhWnC8TDCpssmmUaAfxXfD5HIRP7kWVayxjDL+DZn0LHYrT18WlJ127zCo5+F0uW4NGqx9gpi7jzNAnMlXsBjMJy0caSWPuBW+XZxEYmOD+jpi8RrNKHXNtAyVXJ1UDhtPLvH4CpFhRl8zNGFlWgt+8jdJlodq0MSLEQ5qOqTEFZtXei7HA0XbVxwkIEnOksltRW7D+exnYEqjqvULdhmDvAJvmOx/gTxsMTIJdSniWWz5+2/QAtGhUIisAMPpZVaYrTy+gxIufhL0r540vl6+DcvZM5rULjpcx34bFjEdQ2iAX6xzyGMkNGOGGGMSAeCAXX8ZNHvoTQd2aYHMqpXe8tPl+JfJd3QfjUJUoBFW2a3lOvFGvnnmdgikoNiySW2kyd1gENsEEIPNeFlFDav1GzFerA/vPAhpVhB1pdpKNqdwJzmIjFrEv0bu1tXzilnQ55Xxy9NXVJ+7m3BidcVfW6ay7I+9T6cbf5pCc5CoHWmoB50H23NcC6bu5QnoV7gBcmpJ+IaLanbBmUceYNwuderTRqscAQ2Nj9VyPkxSXY+SFF+x7JW1J4ht/XMJKnLXmjf7jsg40C55XTcbhWlp+flCtyHWunZDKpidgXoiN4dVdx3dWI3+LxnixlEOPVGBBxPWS5hIHefHrcEZ82xtNJWxY4tLYlehcC71ObYeJdMITC/jePQDb4BI71UQBHka/UJ5UeHV38tfMeZyIiuwMQVPan2QNEK0UgW6Desbr/Jfj0kQQD0J6ENvDKDza/Ar9QvxCKML0O88WffDmzeawyK8z6FABA6uV8WIgODSWszeWOXDzECd0pULB+4DRBeFVUZCY2+7fPGiK59V4F2PdCSz+vFT1ikAFi4CJT7nR4q/2oLun9JhR/2Nuj8M2xUpfFTtsIK4A3h4A8s9TyNOwVs8lKFG7mWIVOCgP1IMVFhEfbwPeWRmHn1yXhbRXXcPS1rMWZvVSJGg/Jfw3ZrzrWV7OCv8eW7VrtSbKPqz+aUL9+FSVMwenmox1dDsyS+eWzYk4FiaN5FJhR3UMYhZLmSwtDAe2DnnmfSq++5pEYNnE3TiKpPsYXA/BhnCGqnxgn6bqf4c6enWwUIcIHqUOAOXERgBPO9WBJg8GzRh6G9tZhSOcugEPD1vbXqDKeRdWPrADGUO0ctWkFQchnpG9Jpn1gQJAaQQVRnGWqBYHd99h6mLui8XHx3l2ZRNHi/Rv7qKI9JEwkFlykroe5zstNNwE/OlMrB+QiQWcIeDjYh9Qql4fERDaFXEVOzdODbTsPaadAFhWFNGfPrnv0CChsG9YGyI86f+HDoXbzQSH7yUwgEFq2bi4Uc192kEidoHaOR65ON58FKtmVrinxtMQMiU8A0WLd5u+ovKwLsXyXRwvi7pOf1h+8MkC9Zt1tza/ZplgjRd2pzhuNosIGicT/pR9+cjbod66C7fKyClSy1IPwaP8jBrVAbiqcNkm0vF3vOEGnHbeUsnD/rxHpYH/iS1uEKyyajxyyh1GCxme6BRibK+Rg7PX/rBSm97EEYniQhf4KyZ5ABRlT0iU/FD+SXLDEGJ1RO1owK3fFpibgVK0sWd4py3WXyXTaU10icLac+FfrmK7j22a3CwEZATtAiGt0xlj37phc3aJ/MP2QaAZLAnR7sXd6w9zMCiFotfGqgiKyRCE1ENmqAZHBj7tatcIjfnkZM/giaH0JlHU3ij7L4wtacQd/8O+QjgPneo6yOpwqTq0fWWeBtdb2k72dZWn+wmpCSQae7WeHI4ZlBRsKr1y6iq02cMNAjDhFczOKFfp2qsEAqe33tDa2xFTbXHv5mXAOs/bZQq26rJxcB2LJhdx8e1UPq3TYt8/8sLdq2l+goT/PHenSV6Hxl5So2DAwfwteGDweAxf2vRtMmxiTmbbYzDrkTnUL81FKPh/FxdOMxMGY0OkMSe9nOCOuyxYiEwnK77ye+aZfQ7eer41FI0UnMI2v7A5HHy3vYyYuzo+jt27hXmvFqw/E4tc5AgANWqS6t6FOEAAs3C/LFZtrFXPbF/W9ZyNtJN0CmiC5NaaqvhYRTUYgG5E1F0XKPr04gJ4gTfCzdHhxl3/q5c0O//zZTzw3rxbftRp88N+zjJYCgwJXOSJMz8vR27uqPTIa7pfMVZCHBb6t/YCRzf0K0o7LrKNUrXpkgyHI/+sM7snRqR/7qWwn2dVJMAGQQ4slJ4m5YmUpgxKF0n0Bc8Lvnm44GZ5DDrDAq9HanDu2t3ZvJYHyNyE7loWa8GXMrbXazfMjNWHPqf4BQ6d/28pmASmHN1cNxgXGLSrE30m4jFk1Wy1PZe2MB++z5UuAkQvIWBFxq6JX+hIhREx+ESQ+IzF7dgAnUS366hwa7Fcxj4cdvD2MgADRm4T49LC8g7RIovJPT1eQK4bZ9Y/4DjUTGkYBgAD0AAACLw1uqdiRP8zwi7+V4P906LLT19OcbJEgsWjbUlkIV4kIs6difmdsY2gI2T9XAzDGuk4+QYAEGHxGwAAAAAA=;rotation=5;" vertex="1" parent="1">
          <mxGeometry x="89" y="511" width="66" height="77.59" as="geometry" />
        </mxCell>
        <mxCell id="jOYCfOh7vDJS4i7N_DWJ-2" value="" style="shape=image;verticalLabelPosition=bottom;labelBackgroundColor=default;verticalAlign=top;aspect=fixed;imageAspect=0;image=data:image/webp,UklGRqouAABXRUJQVlA4IJ4uAADQoQCdASooAVwBPiEQh0KhoQjcMogMAQJZ270kE8MA3KEjJtlfAAzFJo4J6O5z+Ur6LkT77usfOy508//+U/6Xs3/P3/V9xn9XPNb/dH3r/sX6rv13/aX2kPXv/XP8/6pv9666D0vfNL/zn70/Dh9t3xGfxz/Pf/jWSZVvJr734L+W7137I/4b/w/7H5XcXfajqL/N/v9+L/xX7U/lP94f8Tvx9ZHqHfkP88/v/5M/ln9P/3nbhcB/uPQR9p/sP+o/yX7zf5L4L/p/Qb7Vejf+wf73ynf2A83LyH9ffgO/Q3/W+4z6YP67/y/63/W/uT7zv0D/F/9D/I/6z9s/sa/mn9o/3H94/zv/k/yn////PlM9Jwf2Np66e306dCn8qFwoNFatnD7ddLXwlOhT+VC4UNTh8LDgjdyLxwIlAQMqSZ1YY6dCn8qFhlLZuiye9xZAwBifGv+59jwHxLEisOTHT2+nToS/nHeOoO1rgHRAu8zcZCze0aJVv8wmifI9frJuoLctiSrHULhQ2pxYPYcan9gsFOShgzgMG21ngDnOjXPP2/XP5ULhKYVVqBunDp96rgmNVugPBfk54GkHKAF/i4TWSR3u1Q0ngCAf8XT2+nTnrAk002Yo//Wn/NP/gZt3lni1rqAoj5ylzC1NCS2bcIo4Kk9PXT2+dxf5S5e6138FUI5MIU9kIZEs0ZULjM6+u4LLfPXmcNPHZjBwFfb6dOhT8TjCKkyr1C1Agv39wulS7pbyyn6v3Gqfj+MUNRCVommsIffw3LEYXANz5l09vp058KkqEawXLE5XH1j0Xyuey4rkFt3xhkswR4ApSGEfD+fG2fWAV7Yaqfd22qqLIOpgpfbKdQuEpgkK8V0xKCW7OdW+ygYvtFGEiuQMxfp/ZM3dCnDUPjzVs8u0+E2s7TYhaIGLAjE7IerEa3OKgQfvVoVhZ4W/JZU8w60kdvDNixhxdINb9Xagj3YX/98hCX3xVbTwJdTPC7qtHPyU8YEKJ6u3kXvbGuVm+BrtfvTksptBclT8dgCumNazfFtn8Bn2F6tJVHmGgMa9sm9hJLjnyqPwHowx0mhgUzaiazNLzqlFCeFXIzS/xMVKix83h28UL6zaAUmiLcuvocJ1A12z+Zo1XewMwTiFvYND/mtrQ4zdp11z7Y8y5mekAq1tUBlf6p/rn3uLLbHzIdh7zIQ/d4XGLHH6HSrpmu7kZ3YP1juySRQ86wO0v/289Ztu1o+gP2R8C7m174NyGnvR7ESgT94lYNxUdghQwIjCWi2pRE3iW1u00Df9nqn8ZWxbWOQDs0aASBzAl9l29+rT3U8wlspT7cN19cxU1S+qEd6+rBbT57+OhyZaL+c06Jna8qV1woan1s43q1Ic2L1WorwWMUzBWgSXNcyRg31SXGXJ74y00ss3mYZQARXYYGisbsq63h1IdQC3npf37M4GjH83SrUgVt5Z0CHvp1CxFnWICmMbx+GpZVBV21cU4h/xWSZfTImigQ+zyaQ6BLJvtbtqN1OsShDj0PJBhTEAe2Qtdta/nXqHxpSWLoQkeksYkgPf2NtVmSqm5NkOcgQN7Jr506l//7klVL1y15HzyZCyV+MWnroYpHP53iXiJNe+xdOIvIr718qnUAntdPZsv0viiLfgFpuzTe8P+uf2Y53dJmNc160NJOp5jtxOyWmc4os96y7oepNtPb6bBlWRONFjqB9w81wfBQ2uNp66e306dCn8qFeAAP7+pxAAAEP/h5qso/cunx1kzyteCtSyYAEvHjmNcEDAREAv/ZTIaSnNzI+sWJZfflEcVerO5CpeWJdmQI6mXK3PwxZrpQxYHufqqGGLXTrBU+UYpsbMI2MuDTR97KKJ0YWQADbIB6TCrHJlvq6dDvbURUqZe4Cw+PESSAF4l4dGw4Jkjm9vp2OTW7uTx2f5ff82xcGgLvf6yLQHkxS35WusuhAhIDKVapwjC29/haRXjbkz9xASc76zIXqdKPiAeTId52fOgF9P7H/huVFp/uj9tPSXdFmsXubTGguBaE6VqqJGTY4k+k1eS5BR3DMGlQo8OvmAjJrg+5mc5NnFpnG9scNaSF8Qobi1GyFiuL6STX0hVbNQRo5JgfeapEQ8km1Nqo2wqPsdg8kXXUVmdJ3TkGPGxSSwyIqRCJylTd6ZNFVFWf37wzM8snTlinvmIENiE1MW49GFcioYAaeYMr7mnAJQBVtqKXLmqsfcH0xAAAPLiTuLNobK5zhW3fwPKkWnaHNMQvgPKr5RVD41NyE+Bf/ovzTf5zyD6SHixL9ENN4xUwMINIVsw0UCh4+iQMrJ0lw3FD7huucC7WJmMONhdfOgDtDmkHrKdw5wnw8JOJ6OXhIF/mgQ6jfxSLH8vGfoRiEYoWGjkZOkiPFo9ZEMe8ooUTjTe5Na5mmfaUeJjcLVD+GMXsUGgdWuocdV7WjS2Q2H9XvowlkQxstJb287/1BsHVlpnJ+fnpM28eMugFIbqHSLPFLnOkzykGqLDeAAXSR5fmjM0AF/ZdDcg+Fn4rf4pQQdTMWYMjGmzcz7nvbMoRAvdUttARk5iMwGRXDT0o1pAQJV1tEAgaUj/hZwCNpWuUMLjEJBIIeipczrHA1WhHtZygo+ZqFnYp7hsUvn7pp4VbCSVyfK10OuWXfXJgKJULFguGiAJxwxs8rCGHmitEANw9WhLK6MGHC19D1BZsk3IIM89WcACfSJNt39PaMepo0FCu+roY3maBNpQmYu3KcNb/Nj+n6+0gQu2LzlHfICc0xYHn6WtYewtTGkBppfIRMrfNKwVC6VPOO8UJrN8v5R5AXFks28FtVBuvhrMvRs6UDhbgDnBcCXmiumuaE4rGh2bZJNJNOar5qpbHgslifkPmucyOZvHlvu+SGlcyTivCkywGq9LJFUR9TdfM/Cromu/f2GvUBV7XuU2pbvaUs0nwJQlKr6jTPBJenUW5RrxfTt3cRyJzwDaIE0ySNmq9ZlqcoQWmg1u9jnPYHZUvdE9nWnSbnbF6UaRy7OWI86vHF8ZWAihCKWjNxQLuTFfJaIcFoW+KFpUtmOs5GQ92An+kmbwCb0E98aNxkA/m3Ql3SXkY9e60eS7rm0ZjNy5Zd0trk1zsV60u0+UqBMhwrQzNbXxb74Nnp3K+p2JgSMQPX2759TUbOwM22YGmiXDDxKRvP5ugl1AyGb46t+FSZ5HD5pgzp3O6Uwr/JWXICuShakkoPvHY+suly+ZIpFVc2Kv3BUbSm5y6xft8COzET0tkNhbum0mA5/yjgrY+lo4e+P2a348HjW2wKARIIfyv0Ard7qqovN2geasgVA57zwnJE5nZ2qA0icFvOIbhslFst8t+G0m5n6m4u0mgZQXH3MNBqsKyFUi1J4okGCWrBuPUMi23VoHYbJJ9e3s0u84kyfsO/pvWtc/vE1AApZVzUQzaYGJhuqHl4rnBuYTDpKZvcN/UBUAxu4hp06wiL2UIrVuWcVlEc8PMXvj0snKIDrOmkHlpVxCVPPxqmVJOQgqcMPdYVFJn8S+mRD2o+JFmJasd02B57ETSLpFJUCnDjsSBeRFkLfufqD0jr8w74DDNae6qHXZMsu2sI0eJvk8RXbU3CNUW9HOj5pxpQcNMVYtXzfxF6Dee8NKS3ZjcbpFmDlEyDjFOTVVKcRX/70q5lPqDHzpW8XcGTsFMe0EleILIedWzTqObcysAueToneE4u8hUkWMeQQjjattIVvbFWhrRV4kKI7hqIHLAXuJ94SHQCv0IJqzTdYbWK0ZlXWry+CVYwO3myuC2RHIMyl6Zl3LlLvNvLjfHiXb+BuHBRO3qg/npwkf+e9GVZ0KKZbl//RGyKPw8rKbcUvXFCYqclSlxvHLQmvNVpLryOy6ePNfglDakTp3rko7hioqIGPKdPDsdH0tdFkN6jqcVVFPDzW6nUc/M/xUc/RJnNQfuWLl++1XQNr5nEE3YSrIVxqGNd4qEEXZZz5RbGY+HIYL3hGSHos+d69a5szJqwS9kZVyGJy1DoB0mAeJPpdseyqffxYwvkOhsNGdsACE0nnvZSjT4HGkFoWrdqdiNlEQeHAB7ZvoY2QSw5zDiMKq7p6WbD9wN6uXGT5P4SslxSirPLbdutSkvzvXlpEHT6LWlHSGU2aDvrUcLQLc8UobOc00E1aLBfAFu9N6RxnoTPinvNSHi6MdIEXJo9QmTi5WG2XVUhpZ+me68KYcYk+snII8QNsPaoDht44gaiSUiGw9lKBdzxTEAvuYDhNI1dF+vf5V5pPzLJJkeaHzJdI0PE86SYyK3/Au8aztO8azuNbGVJuS2ulCl/1+QbPjmdv+3LTwmNGEGgimSLpbPC910i2s3QZlLTjc273/itGEhZaWLR5dN+IcgvdTbiulhqSwRdlJWjCciFLkKMDvBgYj2F4ux53ZhEpcpTJQPyEDveqUnf3IdpuKaYjcqLpo23MP0avVTEYvYjuLQWpy2eMRwegUdPkvkh0rl+ipWC6aBJEgLdjXbN191lSBgeH1sjU1emnIkk1x3rtu8ZU8KHyZlgRnqhyY0DyhJUbDuPVNO1Z+kPLJYFQPwnD6JuLmf1IRDUa37pf+stXcw6tuDCboqxbMIu+arxi9SAV815DwX6VkmZcFKdtOA7BEhlqTaLJe17BeaVPdBSuSXhBhiDKa+r9yILJnagdrvO6UyendXZ/8l45Ki8SWqahPj+2ARpucmTqBd2BOeTaIB/ts06+mXM30qWHFxJ/HjVZrlNZD6S8ihghjJYg3TLFwrVtyxSlLTu9e4pGsC5Jgc8nH2jM/t93wAIMMNEjapT/WEmVb9MeO+U807mmhOjfb9b1jQCymXJoHMSlo9qZ/5jJo1LUzr0ApTw5BIzTzYtxzS7pMGTz33zQC8WdC7zrWfCmUIPr2FAwHVC6z+NomSZ6p5xcapOWk4ccnapzg+XKEcuM1eoIag2ZRzmqFOBanKw4knXjg+M8AagCyYwsQ9pQLMqIsAF34i4AfpmTRRoJhxphiAzncxw7+Pi8kn/lazc2OZa72W+4yZoBUwMNw/cfHx+GCrrYvGUGtjPp2qBH68Fu1tS+UvczY1mxDyrvCcjPURoOJOldSGa3ALgP/011jcOlJfERlGYt4C5wUhJvJxJ89mBJm3HPg7LD/JwJTnxxpNWzxNf6tJFUR4Zq8IR8CeERGVf2pUvhbAJ52x+KEXph/sLx5bA9nmxE8OLV0n23jPK9xR7YPejgFy8KiCbUX9pXkvlrRTr2IaDoEzC6BUufQFYr1tb87/3bVtN5I/R8lTIQcbv0jcfhSWiihAxQfYKceXGhC/72zvyqo5p/t4KzUvFUhyvmGmL/JaJlghUxOeeDPN14ftV6X29fF4utCKR+KHfncc9vW7wGkoQTnijYlvJlbqp5/PZO1XnBqxmuRnippPIwKWGDRH9I+zc7fJ1y820OT8Y8qhZOnMQjDEDWMxALgEvVcI8nex2pOBOcOvDGKNSnplN82epn0diJBXJq5ohsOJELd5wx97WeYksDtoSEaKY/IVDwIaKoTvAhYkLavapB0DFcGWjo0E4f/y9D/FR96bdAAjJbyHgsFJX8hZL0XJ38YYmQy9H1TJwz5r+f82/+KijR0D+jwOj8TD/kIt1yhGj8pJJq+Zkb7ZFFtPR+Z3MfDy2p2qfHm/oM3qIgZW86uvpq9l98HamtvC7yhICFnh31Laj7t5bRJYXM02FJEB3ZlBavTfSxRWjFO5Gxo7uzsaGra8a51/CA1Qc7fB3fYw75wzzIwth/AmxdYGJAIPBr6EamWvtGcG+A49vPZZtkCZTZ3afQakcrFjqd+BfDZEJrykE+caWzhKiNwZ+++jKUieCAe8e+ti2TW+d9YiH0lYABJMrRkDRuVjYy18vK0ut5tiJjv4gKrnO+o2BWoDW5U3jmeiHUHAjVjMCF735Hn0w+AXJp60mB9OD1/z+xh5oehD3sxgZCcZfL6f4/AeP6djNNqSC60AIAiqvQ0Cc+hDxwCPNZ04bjxl8la90gkFsSlae6/qx/uCVUh7NVMFkP79R5c4J76Mgks+lIlwBPMHqpDNJ+2Mks0oKvO/Q0/IyjGpCpV+DaTJFFIncoaHYKH4V/jJqrHiUxXeTZKjJcto4lHMHKxjinPr3qItwuTfFVTf6Ms2fEcy6e3Oq0XASazq/R/KNm1NfpjNugmtKtCbAEbxb22m4T4pdixcmd5bpdRolXsaGq4CqWUHJdwpAs6lQziuDbcYsEPiUdVkgXQk1cev0xBIcavSR6wSsqO4w7LDt0/1JuRFkINWZX2AsdceVd6BqFROOyGGNs0nBQEdicvX9kMVvFGogCN0Ko1qFuEtkm8vpRiJH/7XPKXpDoacfw26uproM5McoeRZ+VihS5DHmFKiHkCRisBrPq5EHIB1Fd7Dvyc9lWOnW0uaexq3GN5CCmNBUAwiMaaxr0wvttQCBCQ1+QGZ1+PhbepUlKR20KaeOB9rCHRJ1K8PNw5LRYZme0LLaJr94xG6xUvkAdglHAcjSfEkWfP5WrZ5b5qE+yvvOiNx/zejjvs7IqMZRZAKgO5YioUsvjOXZB4REQJbh7aqeM0fE0a3g+VFhosso+rf3X36qiNJQCYNMHwP26qwt5tj9fFu6tX2W3RuC5DWXUJ2C+lB2heGAFLU/TCQVNFL2e45A84PgqQs/eQUaD4kD24XS4I+cCu3UATBWVNpOlam0tyl/qyItqzuXQe7fpuUK/d82fH1fKaw1hqb1wg5loxzTn36KIzrT72Z5MgPUrJMZi2ver/PRFB2gJ6UumMOB5K63T0wKCwbnDAJC/MRI8jSooiqy4tjzVy1/jA8aN98k5Ezadn58zxYMeAiCo+6AzRQ/3qpS3LdTdgKcglozByDPgo2lMaQyNTmaMHff7hlG/un9NYp9xxLU5hIBmjTTowYZaI1JJdJreAJA2EZXy9WOn0dDhcDDZ1pT8QKZd8+O1sYDAW6BlMFfiDkGx4qfbw6MJzSXf1rw5dEjVUT+vTQ06E2pJ+qeEB+L6RA86BpEQa7TdXKGefPUqEHQZDAWWGa/Ru1B8TdgW/lhSSYvxb4xSSV+PAila5XIrwq2N0NQRQDaBOYTSEBhvB5uxmpN8Oun/EAJ1nmjjjT8woe1+JbNzJfLMICFAuP/jcPLKP9TtEE1QlX6RIjs3ntMARIq3FKpnA/H04d11D1fvWqPUyQ0R9zBOJngUrZmV/GErDhXp4R9A/nk+XXzNK3pZudSQZvrOiBQMr+Fr+dY8DiTQ1vyseQjlkUhtqd8qnmf+K8o9yf7i0yxlpsjXwve/jpsAxDHKANV0wOFYDBk6ndzuR+rg21s5Fx+wnDmX42Ybx4eO3OuOgJ8o30YHJq11q/GClOiyDV2J7pHmrro0REUhQcRbyO8zEJl+MoMRS/qzkZSQoj54aOoYtIi42xbyVgLHjG0VZhEJWrQdMAuTNW4GUXyzkEXTFhdtfMgyiZPe6eUlmpamZwEzyXLWRznTHRCXielObxY9tJO/myuJ0GLH/EwxzJSGLCQghvlNs4biI3zgLe1itq204mLdT6Jwyp7DxaJJaSJu0109V5nwAOkWGFrHgzS7cQVmWfhCS8dLova269JgcQ9z4s93wHKjPI1SewpyXXdAruilfscgcfJBJQ2cyCFvR081/vgUF8PrToG30ke599JFr3q2rwL1HS4AptVz0dsOXPuz8GPk4S1DmGfcY59SI/TmGfL6auZUHvObtQDn3ol6vARHfT+DPgeofClaBjM+hzEuNZTIuv3TXk29cGP/s/hnSaTfc/plEccvFXY2SZDn+jwVO27QguZSzW56dWmXmk8VIIgWTWk5eldVsE84q62iAITNhFC7jYVHAfvZAz3W2p6h4kWCS5yvOaCz1C5Fx7KhRjMOJdAlt/WsiR+aDD2ilqmzT/yF2ISQyKcs6C4cL/INYGGZiMi83Dq2k/SMZEl4o985/hAiaSXz88lHyfQv1UD4EsJbAQTT8pr3BnF+cPCd5UfZE7PjHYfQ5CkeJ1qzp1KI9X9A98e8NjQ71xfmJnj81Dxr4nyvYSYwO9FDbCkVa/0N7cB4/wwbjHN2SvXBcagXW+Mj4805742AnuLCuA/qdFA8ez95HaktgIje+U+7aJZK6U2l1QN0SNU1u14X3faPDL9uRgDSU8NDY01UTCaNauleMDMn9vO7EC1b2zlToAMv6X98XxPTs0nYkSXA05/7kRddvVi2edi0A7OwXrzZ6AnU0VPEZJWI4oo6F0iu7aYTIPtlN4vqz8n5B4YQkWYWpXHxXtxsxrOglstd0faqC9jQeWuHrQ+vaf1pGXbRZrPDkOOb9nXKUxVxaoPFsF62xHl0I5cG2sbmDgjHB9i6YMOshRk5xP0CNlmb9kozRwzM9IfKpE7INXHMoLu2zsDNCU7+6/gJA2vBMg8qls5vtss3pTXI7nj4nJrZSuXnDz+kyYkisfrYjp/iwzSqLxR5Ukfhe0oiw3/sTvySYT94YTxtFvypCYNnfO5yXvvLmR5wtvkhroOMSwV4gG3qFGpG8q2NiyPTUQQVvz4wY8MKsfDTnyINHcm1ZnNA8HIKHBf9ooH0F29ol8dYzeYEQXs0b8qS7qGRJMf+qBOwtf6+jkWPrFxVT0crkwq1FLuf0sq2D5sZtFAGzKR3UTF1DSzZKRteFv2gypwIKr4FvCRAEc+DeREAdBfTpg8u0nOB6CfBdyaMkatet0TFriYunqdRSvLPaf1atvMnjZsF+tCI1aDQdlBfw7YLU+G9e4UglRoXvJv7SA2beF+XX6csl9KFgTBMBRu+syzBpVMvIvZ8nXty33p2eF6a4arD67RSJXnOVNnGzoMpqclvIZmO6BtDBbp60RGZF3DH4CrutbG4dReSewsN4axQpMgUzSMTtw8xg6s64g/dwH9FbwqZTcUnQjv2dDo2ZHEIOdcR1vUsKvaV4dhtHfSBMQYt6q+kF5goU8aBK+I2TbRW83LD7xHfq1mOjmuP1F+l8mxtdeYEU64bsmvLcbDQz2LOPX3fCuFB/P4KGhhIb0EPH+Y3S8wYPBNJgyavJYcUNDul1rTwXQ2yFXB75UMID4S5XNRu1vzHFIrpvigjII2t+MT0r2xcQ1vMS6aeTz9rfvkdQToU+MelIC/hw14A7VB+HBsbO+h2a7UqNsY9zAiqvmgh3oVPougZM36rZ11jge6G6NHP+ZjgZjYA4IzUeSs/XhbJ7EozyGvF+ZzJ+vkoujjXkdLXr64/0F/p0yN42oILzK1xnQr8rD8ddL2ZgP4sRpMmRdiIU1zcoF41ykgeeaL80I3SM+RBXb+PRNi6KE+hEGzMswCO3RwOGt2C72EqrkRGsuKUGBLIQZ2/2mGkgKEcYRPMZHb9+SzWJquup9lCOwJAr1PvDWfgvgJgPtz/A5GMl8qA9gg6YVJadB23trclSL2gjc3yGEX+4zFHR1ftrNcaWksYqz+8z7+/RuMaktvLYV36VH1DVfQIVDIacDeiPs2eNphKfYuV7KViJ96weUbIE7UgZK0x6Z4ySSqNgCdtPZLU0rdjWFWggyYAMlduS3RdTK35z0uXAPCrW81GqY9CukZ0roLYqbNpWvc1UaguE8Ae2DQj7lvG+bEu0l4Gk0yA//BWNWCyyw2YDYcx2eWKbgSGDaWKBqrzDFzhWP6O8ti/pPDfTuyIoALMD9m8pEV4POh9qVQtiVFpE3meVv4T+vQgCej75XLMEgUh2BWIP+CYrDWsKxV6TwQigxI/R7g1cl4H7QTE0SII8sGo4T5Jdcqz1sYJOqdXsHl5v7zaUnZ3JSqz5rHbfONUoGHatVEabzH3JPeP/sTpapkV2wr7YOW6G11neQkmVT/snh064PyNZvf76XAB+sEv3m4muV2uxk7HHRyJextvLKT9YQKlDdX9NNadx09baoFXvlC3ySQutxAF70RPAaaeQ+rrywKpHqE4jM1Jev6JkpVhC8nwQ3AwvIpBoH9E+gwLDv77mYWRmK5vkTnyqaT4y7LU0esFFGJp5rQuDdDFv7Bpswu0DGDL52yxEnpepotpooeXhUcxGWJizNf24Aiv9GYwS8FJZ6UC4LN4IuUGSSMJuprfcs5mCCvizgCj/PdlpksCtxVEqp9LNWy5AlUtxJ/sI7gm4UWXenC99F+vlCxdvXz5CHHMTxcqCUeMYW4BgOqtSw/s0i9pjHJADIWUT6irLsT6Tp5K06sBkyAB0ZMeg+c9DTBWFNoXo6dHoUP1V7o8aHCrNByW5BvzkkJlmI9SK6PXe79+wDu1wP81PMkWQcBW5lJMNHS/6PnI6+w3wyYGrlL29X+ege8CmJSrAfvFmJ3FLYNrrJckX+Fv8MUYko2IJIo+BylzeT3OxM536wtQQauXNTkW2DoDTuUBzbqCZG9ZaMh6mIfBGgLiY45kmmd5AR2yCrJ5HUFIh6dtW3brZrOJc3P9zwaSqWZBAAuxHwjdS2Wr+Z5dWxK+JSndEhoIzewAfuVhENmuXHLUyJUWpnLg5qg/0DXUlZzMotfSGELMhVIm+/dnQz38ACfcAZnDbbSIKyCXDNe08FBQRCWttgqyjTClZt5Y+DfJCGY6Dqf/3PDCAGjW4/Va/fhnFVr7v5/yLXWReAcXPLCZ6P+h3XfMAPMj7QAHC1Oc3VEGx7Fm6yEEk4rqHknOO9X97Do7SCG3grYqFSyNuniyCMT5E7z3CuCiGMVKGthqpnIRpObRVdeSFFc4NKw6wZ4ykUS66jOMzy8Wl35IjQdjyWVGfy9+pPCGBNHP5pe1lCWkBFam3lv41YzPsggtVqcKcBhWlaIzvVfk2IWMx5KQTSWkVbfVRp6j3xzDKhVjXC0CDgln3UvovG72pIg6g7+kjGbXFk9F8ldb0pWsudNhjytVdm3mAev7vq1uDcLFoGxKMnvhdk1zWt92/ynzOlW+Zo4+ebgZvYd+s0f2vtNyJEHhXi8tqgHZSXshMWmZ4t61Kw2YIhKKoJch/4O7OP3Qa2rt2iTyVFfnuJzem3wjmj2YT0Idq4AGJ0RBpdYAfIc1NjlYVEholYMItHE1JV4S8/W+alVUkCmZR3O0cSrjry1EpcWLo4Ktn/9Bf0Cm280xj5qpoZ3zuyBcfrWWa9ektZIkPwnjucyyI6mE8IjFVbWGK+9/lMvSlAFonfVWLD3ouHu/nElh4IJ4Uybf+y+mmj/Zw3wvFTVvCc8bto/ljT77oGVzMB60364XPeIjiLcnbfnZkEWSjG7hNOqRbeeLKaqra9RjPD6IRV3h1mmO8Lzif3I9e90yFMPYCL9bj4RWlhURPIbwL0hIzKF6kHKP+QN1WKRgBetnXAO9odZhQP3x55rAiPE/Ohwmtw5p+RUO6CK+AhOS9vVzJ3dGAC/qBupDAsEChT3HYFDCPukPe+0bzyMCbbwydtm7fIqBPfBWh+c2tT/xL+vxpMPcUp5FxGSQIG+VeKkdAamfa3CVQuJ3+LCuPZXFUVZBbDz/XK+9Z8UieKAKoj9z3/VQe5rET0h5c2d78+AOO94ZTNApaPX1OVWcrBFNjX+LjxcYMWZ7q51nBa+u3DsBz92ajWNb6lt2S+j1cb2WxTFfTKhjmMg9GdYZHQ2HrxxyqjmqlI53V7qjxDs1WCsIt8ojJokbnrXwfBW+noBpMf2HaHsPooUgyEp56UFIFFBlC+5hahvhQxfuuoqameaCRnRpf2evjOywb4gofuGN1Yrjq/i/jaAa/PklcSDMAiPETdiS6gz2lt9zv2Mnoz/QB9wSKrqn2h0dg15z77KAHqtji9ywLsjdyuncNbaj3oPUUDYrAhRh8uKet/KGjfzjX3woYZkMD0k7kV2ewvnIA6yj4YfrZW87eE5V+7oN33f1P4FyPjvVvwK5/GSd7faCnKyM+CSdFcXtpn1PNUDx63hj8BCdlTtX4hYpyB5oe5be+JHIb+dzbjragF4Z+TIr8P3ud+43EifxPYjz/VqvszPy+ZkY3DBh5sCkHc3LVt9O/hOy7F+0wjPVPSljLAu9/ebUY6asoVffWkRlqOoDL89C6OrOZq1j8iSVe9Qx4lbuz17zoP2aysCvt4+O6QihqsDNUiJpqrsPdAq0U20j3OuKEfrn3IRnWAf1DXQPMib/4RdHeI1U+CYGWui+F39yUbq3KIzGfjbCTHSU1MZN5UgIj00iNckOocYz8zO6UJRptWbf2cRdkMGLUefQe4LHtdFsqDHBoEC59nUZ9D1G6uLIJ0ADxMDYGb07QIzwx36ZBOYjNha2X2y5059QIUttAlK4Z2SAEHV5Bus27osPXotnIJzXs4TkAAVe1hji9WRlzem0f00s1DR/i/mWdIRmsrAguTXUPQ81wAzhVvYlU3vYHtDBF2Oa8dQfi6NtVrB3YPHj0WjcvZK5kONcWggwSQBtHVxfAGCsvEmt1RaT+aSNB7VaiQyDDqws5I3emNMIG6LoJtEqCLTTQv/i6YahJmucEX94LbqFWRxtypGgssTtaIEfa4u8hDddZWOCBCq639+3KVNOJfBteBRA4PT+KNvk0VvUHShplvLI0kqUgJenSDplrFIiu/zcIFfRObR8vQs0Zb4H/uaRiz1B7Y1JwaAfOLNczkr1JtOpPO8H6fe2J/2HeJfdX+IuhuEsaghAiyuvTFrC5V3VV9mkeyKaDBgwx1p+T9+1xTZjdlQsNU4ZIpwh8nbkZrECxGLBVWNFyVeEbtuyNk1HaXaaCc4dqOWzm7qoyhdmPe7ys1LZJCVipJ7PcaPUjW9PiMejHLKwfKx4RxD9kXTaFhOhp6EdI9RHi7ssb5r/RqvML/DVLVzqO+3LAQMlAWcP9TSCSweXXLV2HuOr8fSJz1WWvh2XZWZlNQ0E3BTRs0i53YiYy1zRd3UhLJg2FOV8s00ljDrD+8VLp5XUrtBa8DQvm6HUavw1a8oSx82+TvTeVKwqmnbBcox43sP6zVTR0ciUYMEFAdG8DHAeKk2vgCchgnpQU56D5lczJfRkwpNCHPbxBIl0juOnPYsEpMsFkt6l6KfgHDWIqOM0r8Gp5QtUnyrU2iWFVNIMG2ubzyYxFU0cXk/QCFU0LHT7DfJC0cEZ59HyNeiFKbsrpvcvJ/ALPYVbXE7DLIfex3+8f3EZfRlTWTVZn+kc7h46+/ok4LWILgxGhOkgeO7xv4jLtpG0FnnoQABpmmG3zxxgLP3cBpgL2eJE1R9YyuLnoR6lUGG1FYmXY7HCZDbOLRIIW2ndpt5LiK6meZOxC3oaJfRDmbx9J4nlJYFFpTYFSANo5gReZPpXNz7FHmqbvIJrQ75J0CVffy84VhZ81230VyMXxqToOh7nL+gZqUZVgwbk0SXje59ozH9QXtS2P8UsW3hp/FdkNsiwU7IF+SBMSRWps8Cy1B3kUw6khl/RBfLWZTUX4TR+6/0vgcxq0rrwPhWnC8TDCpssmmUaAfxXfD5HIRP7kWVayxjDL+DZn0LHYrT18WlJ127zCo5+F0uW4NGqx9gpi7jzNAnMlXsBjMJy0caSWPuBW+XZxEYmOD+jpi8RrNKHXNtAyVXJ1UDhtPLvH4CpFhRl8zNGFlWgt+8jdJlodq0MSLEQ5qOqTEFZtXei7HA0XbVxwkIEnOksltRW7D+exnYEqjqvULdhmDvAJvmOx/gTxsMTIJdSniWWz5+2/QAtGhUIisAMPpZVaYrTy+gxIufhL0r540vl6+DcvZM5rULjpcx34bFjEdQ2iAX6xzyGMkNGOGGGMSAeCAXX8ZNHvoTQd2aYHMqpXe8tPl+JfJd3QfjUJUoBFW2a3lOvFGvnnmdgikoNiySW2kyd1gENsEEIPNeFlFDav1GzFerA/vPAhpVhB1pdpKNqdwJzmIjFrEv0bu1tXzilnQ55Xxy9NXVJ+7m3BidcVfW6ay7I+9T6cbf5pCc5CoHWmoB50H23NcC6bu5QnoV7gBcmpJ+IaLanbBmUceYNwuderTRqscAQ2Nj9VyPkxSXY+SFF+x7JW1J4ht/XMJKnLXmjf7jsg40C55XTcbhWlp+flCtyHWunZDKpidgXoiN4dVdx3dWI3+LxnixlEOPVGBBxPWS5hIHefHrcEZ82xtNJWxY4tLYlehcC71ObYeJdMITC/jePQDb4BI71UQBHka/UJ5UeHV38tfMeZyIiuwMQVPan2QNEK0UgW6Desbr/Jfj0kQQD0J6ENvDKDza/Ar9QvxCKML0O88WffDmzeawyK8z6FABA6uV8WIgODSWszeWOXDzECd0pULB+4DRBeFVUZCY2+7fPGiK59V4F2PdCSz+vFT1ikAFi4CJT7nR4q/2oLun9JhR/2Nuj8M2xUpfFTtsIK4A3h4A8s9TyNOwVs8lKFG7mWIVOCgP1IMVFhEfbwPeWRmHn1yXhbRXXcPS1rMWZvVSJGg/Jfw3ZrzrWV7OCv8eW7VrtSbKPqz+aUL9+FSVMwenmox1dDsyS+eWzYk4FiaN5FJhR3UMYhZLmSwtDAe2DnnmfSq++5pEYNnE3TiKpPsYXA/BhnCGqnxgn6bqf4c6enWwUIcIHqUOAOXERgBPO9WBJg8GzRh6G9tZhSOcugEPD1vbXqDKeRdWPrADGUO0ctWkFQchnpG9Jpn1gQJAaQQVRnGWqBYHd99h6mLui8XHx3l2ZRNHi/Rv7qKI9JEwkFlykroe5zstNNwE/OlMrB+QiQWcIeDjYh9Qql4fERDaFXEVOzdODbTsPaadAFhWFNGfPrnv0CChsG9YGyI86f+HDoXbzQSH7yUwgEFq2bi4Uc192kEidoHaOR65ON58FKtmVrinxtMQMiU8A0WLd5u+ovKwLsXyXRwvi7pOf1h+8MkC9Zt1tza/ZplgjRd2pzhuNosIGicT/pR9+cjbod66C7fKyClSy1IPwaP8jBrVAbiqcNkm0vF3vOEGnHbeUsnD/rxHpYH/iS1uEKyyajxyyh1GCxme6BRibK+Rg7PX/rBSm97EEYniQhf4KyZ5ABRlT0iU/FD+SXLDEGJ1RO1owK3fFpibgVK0sWd4py3WXyXTaU10icLac+FfrmK7j22a3CwEZATtAiGt0xlj37phc3aJ/MP2QaAZLAnR7sXd6w9zMCiFotfGqgiKyRCE1ENmqAZHBj7tatcIjfnkZM/giaH0JlHU3ij7L4wtacQd/8O+QjgPneo6yOpwqTq0fWWeBtdb2k72dZWn+wmpCSQae7WeHI4ZlBRsKr1y6iq02cMNAjDhFczOKFfp2qsEAqe33tDa2xFTbXHv5mXAOs/bZQq26rJxcB2LJhdx8e1UPq3TYt8/8sLdq2l+goT/PHenSV6Hxl5So2DAwfwteGDweAxf2vRtMmxiTmbbYzDrkTnUL81FKPh/FxdOMxMGY0OkMSe9nOCOuyxYiEwnK77ye+aZfQ7eer41FI0UnMI2v7A5HHy3vYyYuzo+jt27hXmvFqw/E4tc5AgANWqS6t6FOEAAs3C/LFZtrFXPbF/W9ZyNtJN0CmiC5NaaqvhYRTUYgG5E1F0XKPr04gJ4gTfCzdHhxl3/q5c0O//zZTzw3rxbftRp88N+zjJYCgwJXOSJMz8vR27uqPTIa7pfMVZCHBb6t/YCRzf0K0o7LrKNUrXpkgyHI/+sM7snRqR/7qWwn2dVJMAGQQ4slJ4m5YmUpgxKF0n0Bc8Lvnm44GZ5DDrDAq9HanDu2t3ZvJYHyNyE7loWa8GXMrbXazfMjNWHPqf4BQ6d/28pmASmHN1cNxgXGLSrE30m4jFk1Wy1PZe2MB++z5UuAkQvIWBFxq6JX+hIhREx+ESQ+IzF7dgAnUS366hwa7Fcxj4cdvD2MgADRm4T49LC8g7RIovJPT1eQK4bZ9Y/4DjUTGkYBgAD0AAACLw1uqdiRP8zwi7+V4P906LLT19OcbJEgsWjbUlkIV4kIs6difmdsY2gI2T9XAzDGuk4+QYAEGHxGwAAAAAA=;flipH=1;rotation=-180;" vertex="1" parent="1">
          <mxGeometry x="89" y="631" width="66" height="77.59" as="geometry" />
        </mxCell>
        <mxCell id="jOYCfOh7vDJS4i7N_DWJ-5" value="" style="endArrow=none;dashed=1;html=1;rounded=0;exitX=0.758;exitY=0.742;exitDx=0;exitDy=0;exitPerimeter=0;" edge="1" parent="1">
          <mxGeometry width="50" height="50" relative="1" as="geometry">
            <mxPoint x="137.02800000000002" y="649.0182199999999" as="sourcePoint" />
            <mxPoint x="190" y="610" as="targetPoint" />
          </mxGeometry>
        </mxCell>
        <mxCell id="jOYCfOh7vDJS4i7N_DWJ-7" value="" style="endArrow=none;dashed=1;html=1;rounded=0;exitX=0.634;exitY=0.764;exitDx=0;exitDy=0;exitPerimeter=0;" edge="1" parent="1">
          <mxGeometry width="50" height="50" relative="1" as="geometry">
            <mxPoint x="135.0250685928586" y="570.001618497844" as="sourcePoint" />
            <mxPoint x="190" y="610" as="targetPoint" />
          </mxGeometry>
        </mxCell>
        <mxCell id="jOYCfOh7vDJS4i7N_DWJ-10" value="" style="shape=image;verticalLabelPosition=bottom;labelBackgroundColor=default;verticalAlign=top;aspect=fixed;imageAspect=0;image=data:image/webp,UklGRqouAABXRUJQVlA4IJ4uAADQoQCdASooAVwBPiEQh0KhoQjcMogMAQJZ270kE8MA3KEjJtlfAAzFJo4J6O5z+Ur6LkT77usfOy508//+U/6Xs3/P3/V9xn9XPNb/dH3r/sX6rv13/aX2kPXv/XP8/6pv9666D0vfNL/zn70/Dh9t3xGfxz/Pf/jWSZVvJr734L+W7137I/4b/w/7H5XcXfajqL/N/v9+L/xX7U/lP94f8Tvx9ZHqHfkP88/v/5M/ln9P/3nbhcB/uPQR9p/sP+o/yX7zf5L4L/p/Qb7Vejf+wf73ynf2A83LyH9ffgO/Q3/W+4z6YP67/y/63/W/uT7zv0D/F/9D/I/6z9s/sa/mn9o/3H94/zv/k/yn////PlM9Jwf2Np66e306dCn8qFwoNFatnD7ddLXwlOhT+VC4UNTh8LDgjdyLxwIlAQMqSZ1YY6dCn8qFhlLZuiye9xZAwBifGv+59jwHxLEisOTHT2+nToS/nHeOoO1rgHRAu8zcZCze0aJVv8wmifI9frJuoLctiSrHULhQ2pxYPYcan9gsFOShgzgMG21ngDnOjXPP2/XP5ULhKYVVqBunDp96rgmNVugPBfk54GkHKAF/i4TWSR3u1Q0ngCAf8XT2+nTnrAk002Yo//Wn/NP/gZt3lni1rqAoj5ylzC1NCS2bcIo4Kk9PXT2+dxf5S5e6138FUI5MIU9kIZEs0ZULjM6+u4LLfPXmcNPHZjBwFfb6dOhT8TjCKkyr1C1Agv39wulS7pbyyn6v3Gqfj+MUNRCVommsIffw3LEYXANz5l09vp058KkqEawXLE5XH1j0Xyuey4rkFt3xhkswR4ApSGEfD+fG2fWAV7Yaqfd22qqLIOpgpfbKdQuEpgkK8V0xKCW7OdW+ygYvtFGEiuQMxfp/ZM3dCnDUPjzVs8u0+E2s7TYhaIGLAjE7IerEa3OKgQfvVoVhZ4W/JZU8w60kdvDNixhxdINb9Xagj3YX/98hCX3xVbTwJdTPC7qtHPyU8YEKJ6u3kXvbGuVm+BrtfvTksptBclT8dgCumNazfFtn8Bn2F6tJVHmGgMa9sm9hJLjnyqPwHowx0mhgUzaiazNLzqlFCeFXIzS/xMVKix83h28UL6zaAUmiLcuvocJ1A12z+Zo1XewMwTiFvYND/mtrQ4zdp11z7Y8y5mekAq1tUBlf6p/rn3uLLbHzIdh7zIQ/d4XGLHH6HSrpmu7kZ3YP1juySRQ86wO0v/289Ztu1o+gP2R8C7m174NyGnvR7ESgT94lYNxUdghQwIjCWi2pRE3iW1u00Df9nqn8ZWxbWOQDs0aASBzAl9l29+rT3U8wlspT7cN19cxU1S+qEd6+rBbT57+OhyZaL+c06Jna8qV1woan1s43q1Ic2L1WorwWMUzBWgSXNcyRg31SXGXJ74y00ss3mYZQARXYYGisbsq63h1IdQC3npf37M4GjH83SrUgVt5Z0CHvp1CxFnWICmMbx+GpZVBV21cU4h/xWSZfTImigQ+zyaQ6BLJvtbtqN1OsShDj0PJBhTEAe2Qtdta/nXqHxpSWLoQkeksYkgPf2NtVmSqm5NkOcgQN7Jr506l//7klVL1y15HzyZCyV+MWnroYpHP53iXiJNe+xdOIvIr718qnUAntdPZsv0viiLfgFpuzTe8P+uf2Y53dJmNc160NJOp5jtxOyWmc4os96y7oepNtPb6bBlWRONFjqB9w81wfBQ2uNp66e306dCn8qFeAAP7+pxAAAEP/h5qso/cunx1kzyteCtSyYAEvHjmNcEDAREAv/ZTIaSnNzI+sWJZfflEcVerO5CpeWJdmQI6mXK3PwxZrpQxYHufqqGGLXTrBU+UYpsbMI2MuDTR97KKJ0YWQADbIB6TCrHJlvq6dDvbURUqZe4Cw+PESSAF4l4dGw4Jkjm9vp2OTW7uTx2f5ff82xcGgLvf6yLQHkxS35WusuhAhIDKVapwjC29/haRXjbkz9xASc76zIXqdKPiAeTId52fOgF9P7H/huVFp/uj9tPSXdFmsXubTGguBaE6VqqJGTY4k+k1eS5BR3DMGlQo8OvmAjJrg+5mc5NnFpnG9scNaSF8Qobi1GyFiuL6STX0hVbNQRo5JgfeapEQ8km1Nqo2wqPsdg8kXXUVmdJ3TkGPGxSSwyIqRCJylTd6ZNFVFWf37wzM8snTlinvmIENiE1MW49GFcioYAaeYMr7mnAJQBVtqKXLmqsfcH0xAAAPLiTuLNobK5zhW3fwPKkWnaHNMQvgPKr5RVD41NyE+Bf/ovzTf5zyD6SHixL9ENN4xUwMINIVsw0UCh4+iQMrJ0lw3FD7huucC7WJmMONhdfOgDtDmkHrKdw5wnw8JOJ6OXhIF/mgQ6jfxSLH8vGfoRiEYoWGjkZOkiPFo9ZEMe8ooUTjTe5Na5mmfaUeJjcLVD+GMXsUGgdWuocdV7WjS2Q2H9XvowlkQxstJb287/1BsHVlpnJ+fnpM28eMugFIbqHSLPFLnOkzykGqLDeAAXSR5fmjM0AF/ZdDcg+Fn4rf4pQQdTMWYMjGmzcz7nvbMoRAvdUttARk5iMwGRXDT0o1pAQJV1tEAgaUj/hZwCNpWuUMLjEJBIIeipczrHA1WhHtZygo+ZqFnYp7hsUvn7pp4VbCSVyfK10OuWXfXJgKJULFguGiAJxwxs8rCGHmitEANw9WhLK6MGHC19D1BZsk3IIM89WcACfSJNt39PaMepo0FCu+roY3maBNpQmYu3KcNb/Nj+n6+0gQu2LzlHfICc0xYHn6WtYewtTGkBppfIRMrfNKwVC6VPOO8UJrN8v5R5AXFks28FtVBuvhrMvRs6UDhbgDnBcCXmiumuaE4rGh2bZJNJNOar5qpbHgslifkPmucyOZvHlvu+SGlcyTivCkywGq9LJFUR9TdfM/Cromu/f2GvUBV7XuU2pbvaUs0nwJQlKr6jTPBJenUW5RrxfTt3cRyJzwDaIE0ySNmq9ZlqcoQWmg1u9jnPYHZUvdE9nWnSbnbF6UaRy7OWI86vHF8ZWAihCKWjNxQLuTFfJaIcFoW+KFpUtmOs5GQ92An+kmbwCb0E98aNxkA/m3Ql3SXkY9e60eS7rm0ZjNy5Zd0trk1zsV60u0+UqBMhwrQzNbXxb74Nnp3K+p2JgSMQPX2759TUbOwM22YGmiXDDxKRvP5ugl1AyGb46t+FSZ5HD5pgzp3O6Uwr/JWXICuShakkoPvHY+suly+ZIpFVc2Kv3BUbSm5y6xft8COzET0tkNhbum0mA5/yjgrY+lo4e+P2a348HjW2wKARIIfyv0Ard7qqovN2geasgVA57zwnJE5nZ2qA0icFvOIbhslFst8t+G0m5n6m4u0mgZQXH3MNBqsKyFUi1J4okGCWrBuPUMi23VoHYbJJ9e3s0u84kyfsO/pvWtc/vE1AApZVzUQzaYGJhuqHl4rnBuYTDpKZvcN/UBUAxu4hp06wiL2UIrVuWcVlEc8PMXvj0snKIDrOmkHlpVxCVPPxqmVJOQgqcMPdYVFJn8S+mRD2o+JFmJasd02B57ETSLpFJUCnDjsSBeRFkLfufqD0jr8w74DDNae6qHXZMsu2sI0eJvk8RXbU3CNUW9HOj5pxpQcNMVYtXzfxF6Dee8NKS3ZjcbpFmDlEyDjFOTVVKcRX/70q5lPqDHzpW8XcGTsFMe0EleILIedWzTqObcysAueToneE4u8hUkWMeQQjjattIVvbFWhrRV4kKI7hqIHLAXuJ94SHQCv0IJqzTdYbWK0ZlXWry+CVYwO3myuC2RHIMyl6Zl3LlLvNvLjfHiXb+BuHBRO3qg/npwkf+e9GVZ0KKZbl//RGyKPw8rKbcUvXFCYqclSlxvHLQmvNVpLryOy6ePNfglDakTp3rko7hioqIGPKdPDsdH0tdFkN6jqcVVFPDzW6nUc/M/xUc/RJnNQfuWLl++1XQNr5nEE3YSrIVxqGNd4qEEXZZz5RbGY+HIYL3hGSHos+d69a5szJqwS9kZVyGJy1DoB0mAeJPpdseyqffxYwvkOhsNGdsACE0nnvZSjT4HGkFoWrdqdiNlEQeHAB7ZvoY2QSw5zDiMKq7p6WbD9wN6uXGT5P4SslxSirPLbdutSkvzvXlpEHT6LWlHSGU2aDvrUcLQLc8UobOc00E1aLBfAFu9N6RxnoTPinvNSHi6MdIEXJo9QmTi5WG2XVUhpZ+me68KYcYk+snII8QNsPaoDht44gaiSUiGw9lKBdzxTEAvuYDhNI1dF+vf5V5pPzLJJkeaHzJdI0PE86SYyK3/Au8aztO8azuNbGVJuS2ulCl/1+QbPjmdv+3LTwmNGEGgimSLpbPC910i2s3QZlLTjc273/itGEhZaWLR5dN+IcgvdTbiulhqSwRdlJWjCciFLkKMDvBgYj2F4ux53ZhEpcpTJQPyEDveqUnf3IdpuKaYjcqLpo23MP0avVTEYvYjuLQWpy2eMRwegUdPkvkh0rl+ipWC6aBJEgLdjXbN191lSBgeH1sjU1emnIkk1x3rtu8ZU8KHyZlgRnqhyY0DyhJUbDuPVNO1Z+kPLJYFQPwnD6JuLmf1IRDUa37pf+stXcw6tuDCboqxbMIu+arxi9SAV815DwX6VkmZcFKdtOA7BEhlqTaLJe17BeaVPdBSuSXhBhiDKa+r9yILJnagdrvO6UyendXZ/8l45Ki8SWqahPj+2ARpucmTqBd2BOeTaIB/ts06+mXM30qWHFxJ/HjVZrlNZD6S8ihghjJYg3TLFwrVtyxSlLTu9e4pGsC5Jgc8nH2jM/t93wAIMMNEjapT/WEmVb9MeO+U807mmhOjfb9b1jQCymXJoHMSlo9qZ/5jJo1LUzr0ApTw5BIzTzYtxzS7pMGTz33zQC8WdC7zrWfCmUIPr2FAwHVC6z+NomSZ6p5xcapOWk4ccnapzg+XKEcuM1eoIag2ZRzmqFOBanKw4knXjg+M8AagCyYwsQ9pQLMqIsAF34i4AfpmTRRoJhxphiAzncxw7+Pi8kn/lazc2OZa72W+4yZoBUwMNw/cfHx+GCrrYvGUGtjPp2qBH68Fu1tS+UvczY1mxDyrvCcjPURoOJOldSGa3ALgP/011jcOlJfERlGYt4C5wUhJvJxJ89mBJm3HPg7LD/JwJTnxxpNWzxNf6tJFUR4Zq8IR8CeERGVf2pUvhbAJ52x+KEXph/sLx5bA9nmxE8OLV0n23jPK9xR7YPejgFy8KiCbUX9pXkvlrRTr2IaDoEzC6BUufQFYr1tb87/3bVtN5I/R8lTIQcbv0jcfhSWiihAxQfYKceXGhC/72zvyqo5p/t4KzUvFUhyvmGmL/JaJlghUxOeeDPN14ftV6X29fF4utCKR+KHfncc9vW7wGkoQTnijYlvJlbqp5/PZO1XnBqxmuRnippPIwKWGDRH9I+zc7fJ1y820OT8Y8qhZOnMQjDEDWMxALgEvVcI8nex2pOBOcOvDGKNSnplN82epn0diJBXJq5ohsOJELd5wx97WeYksDtoSEaKY/IVDwIaKoTvAhYkLavapB0DFcGWjo0E4f/y9D/FR96bdAAjJbyHgsFJX8hZL0XJ38YYmQy9H1TJwz5r+f82/+KijR0D+jwOj8TD/kIt1yhGj8pJJq+Zkb7ZFFtPR+Z3MfDy2p2qfHm/oM3qIgZW86uvpq9l98HamtvC7yhICFnh31Laj7t5bRJYXM02FJEB3ZlBavTfSxRWjFO5Gxo7uzsaGra8a51/CA1Qc7fB3fYw75wzzIwth/AmxdYGJAIPBr6EamWvtGcG+A49vPZZtkCZTZ3afQakcrFjqd+BfDZEJrykE+caWzhKiNwZ+++jKUieCAe8e+ti2TW+d9YiH0lYABJMrRkDRuVjYy18vK0ut5tiJjv4gKrnO+o2BWoDW5U3jmeiHUHAjVjMCF735Hn0w+AXJp60mB9OD1/z+xh5oehD3sxgZCcZfL6f4/AeP6djNNqSC60AIAiqvQ0Cc+hDxwCPNZ04bjxl8la90gkFsSlae6/qx/uCVUh7NVMFkP79R5c4J76Mgks+lIlwBPMHqpDNJ+2Mks0oKvO/Q0/IyjGpCpV+DaTJFFIncoaHYKH4V/jJqrHiUxXeTZKjJcto4lHMHKxjinPr3qItwuTfFVTf6Ms2fEcy6e3Oq0XASazq/R/KNm1NfpjNugmtKtCbAEbxb22m4T4pdixcmd5bpdRolXsaGq4CqWUHJdwpAs6lQziuDbcYsEPiUdVkgXQk1cev0xBIcavSR6wSsqO4w7LDt0/1JuRFkINWZX2AsdceVd6BqFROOyGGNs0nBQEdicvX9kMVvFGogCN0Ko1qFuEtkm8vpRiJH/7XPKXpDoacfw26uproM5McoeRZ+VihS5DHmFKiHkCRisBrPq5EHIB1Fd7Dvyc9lWOnW0uaexq3GN5CCmNBUAwiMaaxr0wvttQCBCQ1+QGZ1+PhbepUlKR20KaeOB9rCHRJ1K8PNw5LRYZme0LLaJr94xG6xUvkAdglHAcjSfEkWfP5WrZ5b5qE+yvvOiNx/zejjvs7IqMZRZAKgO5YioUsvjOXZB4REQJbh7aqeM0fE0a3g+VFhosso+rf3X36qiNJQCYNMHwP26qwt5tj9fFu6tX2W3RuC5DWXUJ2C+lB2heGAFLU/TCQVNFL2e45A84PgqQs/eQUaD4kD24XS4I+cCu3UATBWVNpOlam0tyl/qyItqzuXQe7fpuUK/d82fH1fKaw1hqb1wg5loxzTn36KIzrT72Z5MgPUrJMZi2ver/PRFB2gJ6UumMOB5K63T0wKCwbnDAJC/MRI8jSooiqy4tjzVy1/jA8aN98k5Ezadn58zxYMeAiCo+6AzRQ/3qpS3LdTdgKcglozByDPgo2lMaQyNTmaMHff7hlG/un9NYp9xxLU5hIBmjTTowYZaI1JJdJreAJA2EZXy9WOn0dDhcDDZ1pT8QKZd8+O1sYDAW6BlMFfiDkGx4qfbw6MJzSXf1rw5dEjVUT+vTQ06E2pJ+qeEB+L6RA86BpEQa7TdXKGefPUqEHQZDAWWGa/Ru1B8TdgW/lhSSYvxb4xSSV+PAila5XIrwq2N0NQRQDaBOYTSEBhvB5uxmpN8Oun/EAJ1nmjjjT8woe1+JbNzJfLMICFAuP/jcPLKP9TtEE1QlX6RIjs3ntMARIq3FKpnA/H04d11D1fvWqPUyQ0R9zBOJngUrZmV/GErDhXp4R9A/nk+XXzNK3pZudSQZvrOiBQMr+Fr+dY8DiTQ1vyseQjlkUhtqd8qnmf+K8o9yf7i0yxlpsjXwve/jpsAxDHKANV0wOFYDBk6ndzuR+rg21s5Fx+wnDmX42Ybx4eO3OuOgJ8o30YHJq11q/GClOiyDV2J7pHmrro0REUhQcRbyO8zEJl+MoMRS/qzkZSQoj54aOoYtIi42xbyVgLHjG0VZhEJWrQdMAuTNW4GUXyzkEXTFhdtfMgyiZPe6eUlmpamZwEzyXLWRznTHRCXielObxY9tJO/myuJ0GLH/EwxzJSGLCQghvlNs4biI3zgLe1itq204mLdT6Jwyp7DxaJJaSJu0109V5nwAOkWGFrHgzS7cQVmWfhCS8dLova269JgcQ9z4s93wHKjPI1SewpyXXdAruilfscgcfJBJQ2cyCFvR081/vgUF8PrToG30ke599JFr3q2rwL1HS4AptVz0dsOXPuz8GPk4S1DmGfcY59SI/TmGfL6auZUHvObtQDn3ol6vARHfT+DPgeofClaBjM+hzEuNZTIuv3TXk29cGP/s/hnSaTfc/plEccvFXY2SZDn+jwVO27QguZSzW56dWmXmk8VIIgWTWk5eldVsE84q62iAITNhFC7jYVHAfvZAz3W2p6h4kWCS5yvOaCz1C5Fx7KhRjMOJdAlt/WsiR+aDD2ilqmzT/yF2ISQyKcs6C4cL/INYGGZiMi83Dq2k/SMZEl4o985/hAiaSXz88lHyfQv1UD4EsJbAQTT8pr3BnF+cPCd5UfZE7PjHYfQ5CkeJ1qzp1KI9X9A98e8NjQ71xfmJnj81Dxr4nyvYSYwO9FDbCkVa/0N7cB4/wwbjHN2SvXBcagXW+Mj4805742AnuLCuA/qdFA8ez95HaktgIje+U+7aJZK6U2l1QN0SNU1u14X3faPDL9uRgDSU8NDY01UTCaNauleMDMn9vO7EC1b2zlToAMv6X98XxPTs0nYkSXA05/7kRddvVi2edi0A7OwXrzZ6AnU0VPEZJWI4oo6F0iu7aYTIPtlN4vqz8n5B4YQkWYWpXHxXtxsxrOglstd0faqC9jQeWuHrQ+vaf1pGXbRZrPDkOOb9nXKUxVxaoPFsF62xHl0I5cG2sbmDgjHB9i6YMOshRk5xP0CNlmb9kozRwzM9IfKpE7INXHMoLu2zsDNCU7+6/gJA2vBMg8qls5vtss3pTXI7nj4nJrZSuXnDz+kyYkisfrYjp/iwzSqLxR5Ukfhe0oiw3/sTvySYT94YTxtFvypCYNnfO5yXvvLmR5wtvkhroOMSwV4gG3qFGpG8q2NiyPTUQQVvz4wY8MKsfDTnyINHcm1ZnNA8HIKHBf9ooH0F29ol8dYzeYEQXs0b8qS7qGRJMf+qBOwtf6+jkWPrFxVT0crkwq1FLuf0sq2D5sZtFAGzKR3UTF1DSzZKRteFv2gypwIKr4FvCRAEc+DeREAdBfTpg8u0nOB6CfBdyaMkatet0TFriYunqdRSvLPaf1atvMnjZsF+tCI1aDQdlBfw7YLU+G9e4UglRoXvJv7SA2beF+XX6csl9KFgTBMBRu+syzBpVMvIvZ8nXty33p2eF6a4arD67RSJXnOVNnGzoMpqclvIZmO6BtDBbp60RGZF3DH4CrutbG4dReSewsN4axQpMgUzSMTtw8xg6s64g/dwH9FbwqZTcUnQjv2dDo2ZHEIOdcR1vUsKvaV4dhtHfSBMQYt6q+kF5goU8aBK+I2TbRW83LD7xHfq1mOjmuP1F+l8mxtdeYEU64bsmvLcbDQz2LOPX3fCuFB/P4KGhhIb0EPH+Y3S8wYPBNJgyavJYcUNDul1rTwXQ2yFXB75UMID4S5XNRu1vzHFIrpvigjII2t+MT0r2xcQ1vMS6aeTz9rfvkdQToU+MelIC/hw14A7VB+HBsbO+h2a7UqNsY9zAiqvmgh3oVPougZM36rZ11jge6G6NHP+ZjgZjYA4IzUeSs/XhbJ7EozyGvF+ZzJ+vkoujjXkdLXr64/0F/p0yN42oILzK1xnQr8rD8ddL2ZgP4sRpMmRdiIU1zcoF41ykgeeaL80I3SM+RBXb+PRNi6KE+hEGzMswCO3RwOGt2C72EqrkRGsuKUGBLIQZ2/2mGkgKEcYRPMZHb9+SzWJquup9lCOwJAr1PvDWfgvgJgPtz/A5GMl8qA9gg6YVJadB23trclSL2gjc3yGEX+4zFHR1ftrNcaWksYqz+8z7+/RuMaktvLYV36VH1DVfQIVDIacDeiPs2eNphKfYuV7KViJ96weUbIE7UgZK0x6Z4ySSqNgCdtPZLU0rdjWFWggyYAMlduS3RdTK35z0uXAPCrW81GqY9CukZ0roLYqbNpWvc1UaguE8Ae2DQj7lvG+bEu0l4Gk0yA//BWNWCyyw2YDYcx2eWKbgSGDaWKBqrzDFzhWP6O8ti/pPDfTuyIoALMD9m8pEV4POh9qVQtiVFpE3meVv4T+vQgCej75XLMEgUh2BWIP+CYrDWsKxV6TwQigxI/R7g1cl4H7QTE0SII8sGo4T5Jdcqz1sYJOqdXsHl5v7zaUnZ3JSqz5rHbfONUoGHatVEabzH3JPeP/sTpapkV2wr7YOW6G11neQkmVT/snh064PyNZvf76XAB+sEv3m4muV2uxk7HHRyJextvLKT9YQKlDdX9NNadx09baoFXvlC3ySQutxAF70RPAaaeQ+rrywKpHqE4jM1Jev6JkpVhC8nwQ3AwvIpBoH9E+gwLDv77mYWRmK5vkTnyqaT4y7LU0esFFGJp5rQuDdDFv7Bpswu0DGDL52yxEnpepotpooeXhUcxGWJizNf24Aiv9GYwS8FJZ6UC4LN4IuUGSSMJuprfcs5mCCvizgCj/PdlpksCtxVEqp9LNWy5AlUtxJ/sI7gm4UWXenC99F+vlCxdvXz5CHHMTxcqCUeMYW4BgOqtSw/s0i9pjHJADIWUT6irLsT6Tp5K06sBkyAB0ZMeg+c9DTBWFNoXo6dHoUP1V7o8aHCrNByW5BvzkkJlmI9SK6PXe79+wDu1wP81PMkWQcBW5lJMNHS/6PnI6+w3wyYGrlL29X+ege8CmJSrAfvFmJ3FLYNrrJckX+Fv8MUYko2IJIo+BylzeT3OxM536wtQQauXNTkW2DoDTuUBzbqCZG9ZaMh6mIfBGgLiY45kmmd5AR2yCrJ5HUFIh6dtW3brZrOJc3P9zwaSqWZBAAuxHwjdS2Wr+Z5dWxK+JSndEhoIzewAfuVhENmuXHLUyJUWpnLg5qg/0DXUlZzMotfSGELMhVIm+/dnQz38ACfcAZnDbbSIKyCXDNe08FBQRCWttgqyjTClZt5Y+DfJCGY6Dqf/3PDCAGjW4/Va/fhnFVr7v5/yLXWReAcXPLCZ6P+h3XfMAPMj7QAHC1Oc3VEGx7Fm6yEEk4rqHknOO9X97Do7SCG3grYqFSyNuniyCMT5E7z3CuCiGMVKGthqpnIRpObRVdeSFFc4NKw6wZ4ykUS66jOMzy8Wl35IjQdjyWVGfy9+pPCGBNHP5pe1lCWkBFam3lv41YzPsggtVqcKcBhWlaIzvVfk2IWMx5KQTSWkVbfVRp6j3xzDKhVjXC0CDgln3UvovG72pIg6g7+kjGbXFk9F8ldb0pWsudNhjytVdm3mAev7vq1uDcLFoGxKMnvhdk1zWt92/ynzOlW+Zo4+ebgZvYd+s0f2vtNyJEHhXi8tqgHZSXshMWmZ4t61Kw2YIhKKoJch/4O7OP3Qa2rt2iTyVFfnuJzem3wjmj2YT0Idq4AGJ0RBpdYAfIc1NjlYVEholYMItHE1JV4S8/W+alVUkCmZR3O0cSrjry1EpcWLo4Ktn/9Bf0Cm280xj5qpoZ3zuyBcfrWWa9ektZIkPwnjucyyI6mE8IjFVbWGK+9/lMvSlAFonfVWLD3ouHu/nElh4IJ4Uybf+y+mmj/Zw3wvFTVvCc8bto/ljT77oGVzMB60364XPeIjiLcnbfnZkEWSjG7hNOqRbeeLKaqra9RjPD6IRV3h1mmO8Lzif3I9e90yFMPYCL9bj4RWlhURPIbwL0hIzKF6kHKP+QN1WKRgBetnXAO9odZhQP3x55rAiPE/Ohwmtw5p+RUO6CK+AhOS9vVzJ3dGAC/qBupDAsEChT3HYFDCPukPe+0bzyMCbbwydtm7fIqBPfBWh+c2tT/xL+vxpMPcUp5FxGSQIG+VeKkdAamfa3CVQuJ3+LCuPZXFUVZBbDz/XK+9Z8UieKAKoj9z3/VQe5rET0h5c2d78+AOO94ZTNApaPX1OVWcrBFNjX+LjxcYMWZ7q51nBa+u3DsBz92ajWNb6lt2S+j1cb2WxTFfTKhjmMg9GdYZHQ2HrxxyqjmqlI53V7qjxDs1WCsIt8ojJokbnrXwfBW+noBpMf2HaHsPooUgyEp56UFIFFBlC+5hahvhQxfuuoqameaCRnRpf2evjOywb4gofuGN1Yrjq/i/jaAa/PklcSDMAiPETdiS6gz2lt9zv2Mnoz/QB9wSKrqn2h0dg15z77KAHqtji9ywLsjdyuncNbaj3oPUUDYrAhRh8uKet/KGjfzjX3woYZkMD0k7kV2ewvnIA6yj4YfrZW87eE5V+7oN33f1P4FyPjvVvwK5/GSd7faCnKyM+CSdFcXtpn1PNUDx63hj8BCdlTtX4hYpyB5oe5be+JHIb+dzbjragF4Z+TIr8P3ud+43EifxPYjz/VqvszPy+ZkY3DBh5sCkHc3LVt9O/hOy7F+0wjPVPSljLAu9/ebUY6asoVffWkRlqOoDL89C6OrOZq1j8iSVe9Qx4lbuz17zoP2aysCvt4+O6QihqsDNUiJpqrsPdAq0U20j3OuKEfrn3IRnWAf1DXQPMib/4RdHeI1U+CYGWui+F39yUbq3KIzGfjbCTHSU1MZN5UgIj00iNckOocYz8zO6UJRptWbf2cRdkMGLUefQe4LHtdFsqDHBoEC59nUZ9D1G6uLIJ0ADxMDYGb07QIzwx36ZBOYjNha2X2y5059QIUttAlK4Z2SAEHV5Bus27osPXotnIJzXs4TkAAVe1hji9WRlzem0f00s1DR/i/mWdIRmsrAguTXUPQ81wAzhVvYlU3vYHtDBF2Oa8dQfi6NtVrB3YPHj0WjcvZK5kONcWggwSQBtHVxfAGCsvEmt1RaT+aSNB7VaiQyDDqws5I3emNMIG6LoJtEqCLTTQv/i6YahJmucEX94LbqFWRxtypGgssTtaIEfa4u8hDddZWOCBCq639+3KVNOJfBteBRA4PT+KNvk0VvUHShplvLI0kqUgJenSDplrFIiu/zcIFfRObR8vQs0Zb4H/uaRiz1B7Y1JwaAfOLNczkr1JtOpPO8H6fe2J/2HeJfdX+IuhuEsaghAiyuvTFrC5V3VV9mkeyKaDBgwx1p+T9+1xTZjdlQsNU4ZIpwh8nbkZrECxGLBVWNFyVeEbtuyNk1HaXaaCc4dqOWzm7qoyhdmPe7ys1LZJCVipJ7PcaPUjW9PiMejHLKwfKx4RxD9kXTaFhOhp6EdI9RHi7ssb5r/RqvML/DVLVzqO+3LAQMlAWcP9TSCSweXXLV2HuOr8fSJz1WWvh2XZWZlNQ0E3BTRs0i53YiYy1zRd3UhLJg2FOV8s00ljDrD+8VLp5XUrtBa8DQvm6HUavw1a8oSx82+TvTeVKwqmnbBcox43sP6zVTR0ciUYMEFAdG8DHAeKk2vgCchgnpQU56D5lczJfRkwpNCHPbxBIl0juOnPYsEpMsFkt6l6KfgHDWIqOM0r8Gp5QtUnyrU2iWFVNIMG2ubzyYxFU0cXk/QCFU0LHT7DfJC0cEZ59HyNeiFKbsrpvcvJ/ALPYVbXE7DLIfex3+8f3EZfRlTWTVZn+kc7h46+/ok4LWILgxGhOkgeO7xv4jLtpG0FnnoQABpmmG3zxxgLP3cBpgL2eJE1R9YyuLnoR6lUGG1FYmXY7HCZDbOLRIIW2ndpt5LiK6meZOxC3oaJfRDmbx9J4nlJYFFpTYFSANo5gReZPpXNz7FHmqbvIJrQ75J0CVffy84VhZ81230VyMXxqToOh7nL+gZqUZVgwbk0SXje59ozH9QXtS2P8UsW3hp/FdkNsiwU7IF+SBMSRWps8Cy1B3kUw6khl/RBfLWZTUX4TR+6/0vgcxq0rrwPhWnC8TDCpssmmUaAfxXfD5HIRP7kWVayxjDL+DZn0LHYrT18WlJ127zCo5+F0uW4NGqx9gpi7jzNAnMlXsBjMJy0caSWPuBW+XZxEYmOD+jpi8RrNKHXNtAyVXJ1UDhtPLvH4CpFhRl8zNGFlWgt+8jdJlodq0MSLEQ5qOqTEFZtXei7HA0XbVxwkIEnOksltRW7D+exnYEqjqvULdhmDvAJvmOx/gTxsMTIJdSniWWz5+2/QAtGhUIisAMPpZVaYrTy+gxIufhL0r540vl6+DcvZM5rULjpcx34bFjEdQ2iAX6xzyGMkNGOGGGMSAeCAXX8ZNHvoTQd2aYHMqpXe8tPl+JfJd3QfjUJUoBFW2a3lOvFGvnnmdgikoNiySW2kyd1gENsEEIPNeFlFDav1GzFerA/vPAhpVhB1pdpKNqdwJzmIjFrEv0bu1tXzilnQ55Xxy9NXVJ+7m3BidcVfW6ay7I+9T6cbf5pCc5CoHWmoB50H23NcC6bu5QnoV7gBcmpJ+IaLanbBmUceYNwuderTRqscAQ2Nj9VyPkxSXY+SFF+x7JW1J4ht/XMJKnLXmjf7jsg40C55XTcbhWlp+flCtyHWunZDKpidgXoiN4dVdx3dWI3+LxnixlEOPVGBBxPWS5hIHefHrcEZ82xtNJWxY4tLYlehcC71ObYeJdMITC/jePQDb4BI71UQBHka/UJ5UeHV38tfMeZyIiuwMQVPan2QNEK0UgW6Desbr/Jfj0kQQD0J6ENvDKDza/Ar9QvxCKML0O88WffDmzeawyK8z6FABA6uV8WIgODSWszeWOXDzECd0pULB+4DRBeFVUZCY2+7fPGiK59V4F2PdCSz+vFT1ikAFi4CJT7nR4q/2oLun9JhR/2Nuj8M2xUpfFTtsIK4A3h4A8s9TyNOwVs8lKFG7mWIVOCgP1IMVFhEfbwPeWRmHn1yXhbRXXcPS1rMWZvVSJGg/Jfw3ZrzrWV7OCv8eW7VrtSbKPqz+aUL9+FSVMwenmox1dDsyS+eWzYk4FiaN5FJhR3UMYhZLmSwtDAe2DnnmfSq++5pEYNnE3TiKpPsYXA/BhnCGqnxgn6bqf4c6enWwUIcIHqUOAOXERgBPO9WBJg8GzRh6G9tZhSOcugEPD1vbXqDKeRdWPrADGUO0ctWkFQchnpG9Jpn1gQJAaQQVRnGWqBYHd99h6mLui8XHx3l2ZRNHi/Rv7qKI9JEwkFlykroe5zstNNwE/OlMrB+QiQWcIeDjYh9Qql4fERDaFXEVOzdODbTsPaadAFhWFNGfPrnv0CChsG9YGyI86f+HDoXbzQSH7yUwgEFq2bi4Uc192kEidoHaOR65ON58FKtmVrinxtMQMiU8A0WLd5u+ovKwLsXyXRwvi7pOf1h+8MkC9Zt1tza/ZplgjRd2pzhuNosIGicT/pR9+cjbod66C7fKyClSy1IPwaP8jBrVAbiqcNkm0vF3vOEGnHbeUsnD/rxHpYH/iS1uEKyyajxyyh1GCxme6BRibK+Rg7PX/rBSm97EEYniQhf4KyZ5ABRlT0iU/FD+SXLDEGJ1RO1owK3fFpibgVK0sWd4py3WXyXTaU10icLac+FfrmK7j22a3CwEZATtAiGt0xlj37phc3aJ/MP2QaAZLAnR7sXd6w9zMCiFotfGqgiKyRCE1ENmqAZHBj7tatcIjfnkZM/giaH0JlHU3ij7L4wtacQd/8O+QjgPneo6yOpwqTq0fWWeBtdb2k72dZWn+wmpCSQae7WeHI4ZlBRsKr1y6iq02cMNAjDhFczOKFfp2qsEAqe33tDa2xFTbXHv5mXAOs/bZQq26rJxcB2LJhdx8e1UPq3TYt8/8sLdq2l+goT/PHenSV6Hxl5So2DAwfwteGDweAxf2vRtMmxiTmbbYzDrkTnUL81FKPh/FxdOMxMGY0OkMSe9nOCOuyxYiEwnK77ye+aZfQ7eer41FI0UnMI2v7A5HHy3vYyYuzo+jt27hXmvFqw/E4tc5AgANWqS6t6FOEAAs3C/LFZtrFXPbF/W9ZyNtJN0CmiC5NaaqvhYRTUYgG5E1F0XKPr04gJ4gTfCzdHhxl3/q5c0O//zZTzw3rxbftRp88N+zjJYCgwJXOSJMz8vR27uqPTIa7pfMVZCHBb6t/YCRzf0K0o7LrKNUrXpkgyHI/+sM7snRqR/7qWwn2dVJMAGQQ4slJ4m5YmUpgxKF0n0Bc8Lvnm44GZ5DDrDAq9HanDu2t3ZvJYHyNyE7loWa8GXMrbXazfMjNWHPqf4BQ6d/28pmASmHN1cNxgXGLSrE30m4jFk1Wy1PZe2MB++z5UuAkQvIWBFxq6JX+hIhREx+ESQ+IzF7dgAnUS366hwa7Fcxj4cdvD2MgADRm4T49LC8g7RIovJPT1eQK4bZ9Y/4DjUTGkYBgAD0AAACLw1uqdiRP8zwi7+V4P906LLT19OcbJEgsWjbUlkIV4kIs6difmdsY2gI2T9XAzDGuk4+QYAEGHxGwAAAAAA=;rotation=5;flipV=0;flipH=1;" vertex="1" parent="1">
          <mxGeometry x="419" y="511" width="66" height="77.59" as="geometry" />
        </mxCell>
        <mxCell id="jOYCfOh7vDJS4i7N_DWJ-11" value="" style="shape=image;verticalLabelPosition=bottom;labelBackgroundColor=default;verticalAlign=top;aspect=fixed;imageAspect=0;image=data:image/webp,UklGRqouAABXRUJQVlA4IJ4uAADQoQCdASooAVwBPiEQh0KhoQjcMogMAQJZ270kE8MA3KEjJtlfAAzFJo4J6O5z+Ur6LkT77usfOy508//+U/6Xs3/P3/V9xn9XPNb/dH3r/sX6rv13/aX2kPXv/XP8/6pv9666D0vfNL/zn70/Dh9t3xGfxz/Pf/jWSZVvJr734L+W7137I/4b/w/7H5XcXfajqL/N/v9+L/xX7U/lP94f8Tvx9ZHqHfkP88/v/5M/ln9P/3nbhcB/uPQR9p/sP+o/yX7zf5L4L/p/Qb7Vejf+wf73ynf2A83LyH9ffgO/Q3/W+4z6YP67/y/63/W/uT7zv0D/F/9D/I/6z9s/sa/mn9o/3H94/zv/k/yn////PlM9Jwf2Np66e306dCn8qFwoNFatnD7ddLXwlOhT+VC4UNTh8LDgjdyLxwIlAQMqSZ1YY6dCn8qFhlLZuiye9xZAwBifGv+59jwHxLEisOTHT2+nToS/nHeOoO1rgHRAu8zcZCze0aJVv8wmifI9frJuoLctiSrHULhQ2pxYPYcan9gsFOShgzgMG21ngDnOjXPP2/XP5ULhKYVVqBunDp96rgmNVugPBfk54GkHKAF/i4TWSR3u1Q0ngCAf8XT2+nTnrAk002Yo//Wn/NP/gZt3lni1rqAoj5ylzC1NCS2bcIo4Kk9PXT2+dxf5S5e6138FUI5MIU9kIZEs0ZULjM6+u4LLfPXmcNPHZjBwFfb6dOhT8TjCKkyr1C1Agv39wulS7pbyyn6v3Gqfj+MUNRCVommsIffw3LEYXANz5l09vp058KkqEawXLE5XH1j0Xyuey4rkFt3xhkswR4ApSGEfD+fG2fWAV7Yaqfd22qqLIOpgpfbKdQuEpgkK8V0xKCW7OdW+ygYvtFGEiuQMxfp/ZM3dCnDUPjzVs8u0+E2s7TYhaIGLAjE7IerEa3OKgQfvVoVhZ4W/JZU8w60kdvDNixhxdINb9Xagj3YX/98hCX3xVbTwJdTPC7qtHPyU8YEKJ6u3kXvbGuVm+BrtfvTksptBclT8dgCumNazfFtn8Bn2F6tJVHmGgMa9sm9hJLjnyqPwHowx0mhgUzaiazNLzqlFCeFXIzS/xMVKix83h28UL6zaAUmiLcuvocJ1A12z+Zo1XewMwTiFvYND/mtrQ4zdp11z7Y8y5mekAq1tUBlf6p/rn3uLLbHzIdh7zIQ/d4XGLHH6HSrpmu7kZ3YP1juySRQ86wO0v/289Ztu1o+gP2R8C7m174NyGnvR7ESgT94lYNxUdghQwIjCWi2pRE3iW1u00Df9nqn8ZWxbWOQDs0aASBzAl9l29+rT3U8wlspT7cN19cxU1S+qEd6+rBbT57+OhyZaL+c06Jna8qV1woan1s43q1Ic2L1WorwWMUzBWgSXNcyRg31SXGXJ74y00ss3mYZQARXYYGisbsq63h1IdQC3npf37M4GjH83SrUgVt5Z0CHvp1CxFnWICmMbx+GpZVBV21cU4h/xWSZfTImigQ+zyaQ6BLJvtbtqN1OsShDj0PJBhTEAe2Qtdta/nXqHxpSWLoQkeksYkgPf2NtVmSqm5NkOcgQN7Jr506l//7klVL1y15HzyZCyV+MWnroYpHP53iXiJNe+xdOIvIr718qnUAntdPZsv0viiLfgFpuzTe8P+uf2Y53dJmNc160NJOp5jtxOyWmc4os96y7oepNtPb6bBlWRONFjqB9w81wfBQ2uNp66e306dCn8qFeAAP7+pxAAAEP/h5qso/cunx1kzyteCtSyYAEvHjmNcEDAREAv/ZTIaSnNzI+sWJZfflEcVerO5CpeWJdmQI6mXK3PwxZrpQxYHufqqGGLXTrBU+UYpsbMI2MuDTR97KKJ0YWQADbIB6TCrHJlvq6dDvbURUqZe4Cw+PESSAF4l4dGw4Jkjm9vp2OTW7uTx2f5ff82xcGgLvf6yLQHkxS35WusuhAhIDKVapwjC29/haRXjbkz9xASc76zIXqdKPiAeTId52fOgF9P7H/huVFp/uj9tPSXdFmsXubTGguBaE6VqqJGTY4k+k1eS5BR3DMGlQo8OvmAjJrg+5mc5NnFpnG9scNaSF8Qobi1GyFiuL6STX0hVbNQRo5JgfeapEQ8km1Nqo2wqPsdg8kXXUVmdJ3TkGPGxSSwyIqRCJylTd6ZNFVFWf37wzM8snTlinvmIENiE1MW49GFcioYAaeYMr7mnAJQBVtqKXLmqsfcH0xAAAPLiTuLNobK5zhW3fwPKkWnaHNMQvgPKr5RVD41NyE+Bf/ovzTf5zyD6SHixL9ENN4xUwMINIVsw0UCh4+iQMrJ0lw3FD7huucC7WJmMONhdfOgDtDmkHrKdw5wnw8JOJ6OXhIF/mgQ6jfxSLH8vGfoRiEYoWGjkZOkiPFo9ZEMe8ooUTjTe5Na5mmfaUeJjcLVD+GMXsUGgdWuocdV7WjS2Q2H9XvowlkQxstJb287/1BsHVlpnJ+fnpM28eMugFIbqHSLPFLnOkzykGqLDeAAXSR5fmjM0AF/ZdDcg+Fn4rf4pQQdTMWYMjGmzcz7nvbMoRAvdUttARk5iMwGRXDT0o1pAQJV1tEAgaUj/hZwCNpWuUMLjEJBIIeipczrHA1WhHtZygo+ZqFnYp7hsUvn7pp4VbCSVyfK10OuWXfXJgKJULFguGiAJxwxs8rCGHmitEANw9WhLK6MGHC19D1BZsk3IIM89WcACfSJNt39PaMepo0FCu+roY3maBNpQmYu3KcNb/Nj+n6+0gQu2LzlHfICc0xYHn6WtYewtTGkBppfIRMrfNKwVC6VPOO8UJrN8v5R5AXFks28FtVBuvhrMvRs6UDhbgDnBcCXmiumuaE4rGh2bZJNJNOar5qpbHgslifkPmucyOZvHlvu+SGlcyTivCkywGq9LJFUR9TdfM/Cromu/f2GvUBV7XuU2pbvaUs0nwJQlKr6jTPBJenUW5RrxfTt3cRyJzwDaIE0ySNmq9ZlqcoQWmg1u9jnPYHZUvdE9nWnSbnbF6UaRy7OWI86vHF8ZWAihCKWjNxQLuTFfJaIcFoW+KFpUtmOs5GQ92An+kmbwCb0E98aNxkA/m3Ql3SXkY9e60eS7rm0ZjNy5Zd0trk1zsV60u0+UqBMhwrQzNbXxb74Nnp3K+p2JgSMQPX2759TUbOwM22YGmiXDDxKRvP5ugl1AyGb46t+FSZ5HD5pgzp3O6Uwr/JWXICuShakkoPvHY+suly+ZIpFVc2Kv3BUbSm5y6xft8COzET0tkNhbum0mA5/yjgrY+lo4e+P2a348HjW2wKARIIfyv0Ard7qqovN2geasgVA57zwnJE5nZ2qA0icFvOIbhslFst8t+G0m5n6m4u0mgZQXH3MNBqsKyFUi1J4okGCWrBuPUMi23VoHYbJJ9e3s0u84kyfsO/pvWtc/vE1AApZVzUQzaYGJhuqHl4rnBuYTDpKZvcN/UBUAxu4hp06wiL2UIrVuWcVlEc8PMXvj0snKIDrOmkHlpVxCVPPxqmVJOQgqcMPdYVFJn8S+mRD2o+JFmJasd02B57ETSLpFJUCnDjsSBeRFkLfufqD0jr8w74DDNae6qHXZMsu2sI0eJvk8RXbU3CNUW9HOj5pxpQcNMVYtXzfxF6Dee8NKS3ZjcbpFmDlEyDjFOTVVKcRX/70q5lPqDHzpW8XcGTsFMe0EleILIedWzTqObcysAueToneE4u8hUkWMeQQjjattIVvbFWhrRV4kKI7hqIHLAXuJ94SHQCv0IJqzTdYbWK0ZlXWry+CVYwO3myuC2RHIMyl6Zl3LlLvNvLjfHiXb+BuHBRO3qg/npwkf+e9GVZ0KKZbl//RGyKPw8rKbcUvXFCYqclSlxvHLQmvNVpLryOy6ePNfglDakTp3rko7hioqIGPKdPDsdH0tdFkN6jqcVVFPDzW6nUc/M/xUc/RJnNQfuWLl++1XQNr5nEE3YSrIVxqGNd4qEEXZZz5RbGY+HIYL3hGSHos+d69a5szJqwS9kZVyGJy1DoB0mAeJPpdseyqffxYwvkOhsNGdsACE0nnvZSjT4HGkFoWrdqdiNlEQeHAB7ZvoY2QSw5zDiMKq7p6WbD9wN6uXGT5P4SslxSirPLbdutSkvzvXlpEHT6LWlHSGU2aDvrUcLQLc8UobOc00E1aLBfAFu9N6RxnoTPinvNSHi6MdIEXJo9QmTi5WG2XVUhpZ+me68KYcYk+snII8QNsPaoDht44gaiSUiGw9lKBdzxTEAvuYDhNI1dF+vf5V5pPzLJJkeaHzJdI0PE86SYyK3/Au8aztO8azuNbGVJuS2ulCl/1+QbPjmdv+3LTwmNGEGgimSLpbPC910i2s3QZlLTjc273/itGEhZaWLR5dN+IcgvdTbiulhqSwRdlJWjCciFLkKMDvBgYj2F4ux53ZhEpcpTJQPyEDveqUnf3IdpuKaYjcqLpo23MP0avVTEYvYjuLQWpy2eMRwegUdPkvkh0rl+ipWC6aBJEgLdjXbN191lSBgeH1sjU1emnIkk1x3rtu8ZU8KHyZlgRnqhyY0DyhJUbDuPVNO1Z+kPLJYFQPwnD6JuLmf1IRDUa37pf+stXcw6tuDCboqxbMIu+arxi9SAV815DwX6VkmZcFKdtOA7BEhlqTaLJe17BeaVPdBSuSXhBhiDKa+r9yILJnagdrvO6UyendXZ/8l45Ki8SWqahPj+2ARpucmTqBd2BOeTaIB/ts06+mXM30qWHFxJ/HjVZrlNZD6S8ihghjJYg3TLFwrVtyxSlLTu9e4pGsC5Jgc8nH2jM/t93wAIMMNEjapT/WEmVb9MeO+U807mmhOjfb9b1jQCymXJoHMSlo9qZ/5jJo1LUzr0ApTw5BIzTzYtxzS7pMGTz33zQC8WdC7zrWfCmUIPr2FAwHVC6z+NomSZ6p5xcapOWk4ccnapzg+XKEcuM1eoIag2ZRzmqFOBanKw4knXjg+M8AagCyYwsQ9pQLMqIsAF34i4AfpmTRRoJhxphiAzncxw7+Pi8kn/lazc2OZa72W+4yZoBUwMNw/cfHx+GCrrYvGUGtjPp2qBH68Fu1tS+UvczY1mxDyrvCcjPURoOJOldSGa3ALgP/011jcOlJfERlGYt4C5wUhJvJxJ89mBJm3HPg7LD/JwJTnxxpNWzxNf6tJFUR4Zq8IR8CeERGVf2pUvhbAJ52x+KEXph/sLx5bA9nmxE8OLV0n23jPK9xR7YPejgFy8KiCbUX9pXkvlrRTr2IaDoEzC6BUufQFYr1tb87/3bVtN5I/R8lTIQcbv0jcfhSWiihAxQfYKceXGhC/72zvyqo5p/t4KzUvFUhyvmGmL/JaJlghUxOeeDPN14ftV6X29fF4utCKR+KHfncc9vW7wGkoQTnijYlvJlbqp5/PZO1XnBqxmuRnippPIwKWGDRH9I+zc7fJ1y820OT8Y8qhZOnMQjDEDWMxALgEvVcI8nex2pOBOcOvDGKNSnplN82epn0diJBXJq5ohsOJELd5wx97WeYksDtoSEaKY/IVDwIaKoTvAhYkLavapB0DFcGWjo0E4f/y9D/FR96bdAAjJbyHgsFJX8hZL0XJ38YYmQy9H1TJwz5r+f82/+KijR0D+jwOj8TD/kIt1yhGj8pJJq+Zkb7ZFFtPR+Z3MfDy2p2qfHm/oM3qIgZW86uvpq9l98HamtvC7yhICFnh31Laj7t5bRJYXM02FJEB3ZlBavTfSxRWjFO5Gxo7uzsaGra8a51/CA1Qc7fB3fYw75wzzIwth/AmxdYGJAIPBr6EamWvtGcG+A49vPZZtkCZTZ3afQakcrFjqd+BfDZEJrykE+caWzhKiNwZ+++jKUieCAe8e+ti2TW+d9YiH0lYABJMrRkDRuVjYy18vK0ut5tiJjv4gKrnO+o2BWoDW5U3jmeiHUHAjVjMCF735Hn0w+AXJp60mB9OD1/z+xh5oehD3sxgZCcZfL6f4/AeP6djNNqSC60AIAiqvQ0Cc+hDxwCPNZ04bjxl8la90gkFsSlae6/qx/uCVUh7NVMFkP79R5c4J76Mgks+lIlwBPMHqpDNJ+2Mks0oKvO/Q0/IyjGpCpV+DaTJFFIncoaHYKH4V/jJqrHiUxXeTZKjJcto4lHMHKxjinPr3qItwuTfFVTf6Ms2fEcy6e3Oq0XASazq/R/KNm1NfpjNugmtKtCbAEbxb22m4T4pdixcmd5bpdRolXsaGq4CqWUHJdwpAs6lQziuDbcYsEPiUdVkgXQk1cev0xBIcavSR6wSsqO4w7LDt0/1JuRFkINWZX2AsdceVd6BqFROOyGGNs0nBQEdicvX9kMVvFGogCN0Ko1qFuEtkm8vpRiJH/7XPKXpDoacfw26uproM5McoeRZ+VihS5DHmFKiHkCRisBrPq5EHIB1Fd7Dvyc9lWOnW0uaexq3GN5CCmNBUAwiMaaxr0wvttQCBCQ1+QGZ1+PhbepUlKR20KaeOB9rCHRJ1K8PNw5LRYZme0LLaJr94xG6xUvkAdglHAcjSfEkWfP5WrZ5b5qE+yvvOiNx/zejjvs7IqMZRZAKgO5YioUsvjOXZB4REQJbh7aqeM0fE0a3g+VFhosso+rf3X36qiNJQCYNMHwP26qwt5tj9fFu6tX2W3RuC5DWXUJ2C+lB2heGAFLU/TCQVNFL2e45A84PgqQs/eQUaD4kD24XS4I+cCu3UATBWVNpOlam0tyl/qyItqzuXQe7fpuUK/d82fH1fKaw1hqb1wg5loxzTn36KIzrT72Z5MgPUrJMZi2ver/PRFB2gJ6UumMOB5K63T0wKCwbnDAJC/MRI8jSooiqy4tjzVy1/jA8aN98k5Ezadn58zxYMeAiCo+6AzRQ/3qpS3LdTdgKcglozByDPgo2lMaQyNTmaMHff7hlG/un9NYp9xxLU5hIBmjTTowYZaI1JJdJreAJA2EZXy9WOn0dDhcDDZ1pT8QKZd8+O1sYDAW6BlMFfiDkGx4qfbw6MJzSXf1rw5dEjVUT+vTQ06E2pJ+qeEB+L6RA86BpEQa7TdXKGefPUqEHQZDAWWGa/Ru1B8TdgW/lhSSYvxb4xSSV+PAila5XIrwq2N0NQRQDaBOYTSEBhvB5uxmpN8Oun/EAJ1nmjjjT8woe1+JbNzJfLMICFAuP/jcPLKP9TtEE1QlX6RIjs3ntMARIq3FKpnA/H04d11D1fvWqPUyQ0R9zBOJngUrZmV/GErDhXp4R9A/nk+XXzNK3pZudSQZvrOiBQMr+Fr+dY8DiTQ1vyseQjlkUhtqd8qnmf+K8o9yf7i0yxlpsjXwve/jpsAxDHKANV0wOFYDBk6ndzuR+rg21s5Fx+wnDmX42Ybx4eO3OuOgJ8o30YHJq11q/GClOiyDV2J7pHmrro0REUhQcRbyO8zEJl+MoMRS/qzkZSQoj54aOoYtIi42xbyVgLHjG0VZhEJWrQdMAuTNW4GUXyzkEXTFhdtfMgyiZPe6eUlmpamZwEzyXLWRznTHRCXielObxY9tJO/myuJ0GLH/EwxzJSGLCQghvlNs4biI3zgLe1itq204mLdT6Jwyp7DxaJJaSJu0109V5nwAOkWGFrHgzS7cQVmWfhCS8dLova269JgcQ9z4s93wHKjPI1SewpyXXdAruilfscgcfJBJQ2cyCFvR081/vgUF8PrToG30ke599JFr3q2rwL1HS4AptVz0dsOXPuz8GPk4S1DmGfcY59SI/TmGfL6auZUHvObtQDn3ol6vARHfT+DPgeofClaBjM+hzEuNZTIuv3TXk29cGP/s/hnSaTfc/plEccvFXY2SZDn+jwVO27QguZSzW56dWmXmk8VIIgWTWk5eldVsE84q62iAITNhFC7jYVHAfvZAz3W2p6h4kWCS5yvOaCz1C5Fx7KhRjMOJdAlt/WsiR+aDD2ilqmzT/yF2ISQyKcs6C4cL/INYGGZiMi83Dq2k/SMZEl4o985/hAiaSXz88lHyfQv1UD4EsJbAQTT8pr3BnF+cPCd5UfZE7PjHYfQ5CkeJ1qzp1KI9X9A98e8NjQ71xfmJnj81Dxr4nyvYSYwO9FDbCkVa/0N7cB4/wwbjHN2SvXBcagXW+Mj4805742AnuLCuA/qdFA8ez95HaktgIje+U+7aJZK6U2l1QN0SNU1u14X3faPDL9uRgDSU8NDY01UTCaNauleMDMn9vO7EC1b2zlToAMv6X98XxPTs0nYkSXA05/7kRddvVi2edi0A7OwXrzZ6AnU0VPEZJWI4oo6F0iu7aYTIPtlN4vqz8n5B4YQkWYWpXHxXtxsxrOglstd0faqC9jQeWuHrQ+vaf1pGXbRZrPDkOOb9nXKUxVxaoPFsF62xHl0I5cG2sbmDgjHB9i6YMOshRk5xP0CNlmb9kozRwzM9IfKpE7INXHMoLu2zsDNCU7+6/gJA2vBMg8qls5vtss3pTXI7nj4nJrZSuXnDz+kyYkisfrYjp/iwzSqLxR5Ukfhe0oiw3/sTvySYT94YTxtFvypCYNnfO5yXvvLmR5wtvkhroOMSwV4gG3qFGpG8q2NiyPTUQQVvz4wY8MKsfDTnyINHcm1ZnNA8HIKHBf9ooH0F29ol8dYzeYEQXs0b8qS7qGRJMf+qBOwtf6+jkWPrFxVT0crkwq1FLuf0sq2D5sZtFAGzKR3UTF1DSzZKRteFv2gypwIKr4FvCRAEc+DeREAdBfTpg8u0nOB6CfBdyaMkatet0TFriYunqdRSvLPaf1atvMnjZsF+tCI1aDQdlBfw7YLU+G9e4UglRoXvJv7SA2beF+XX6csl9KFgTBMBRu+syzBpVMvIvZ8nXty33p2eF6a4arD67RSJXnOVNnGzoMpqclvIZmO6BtDBbp60RGZF3DH4CrutbG4dReSewsN4axQpMgUzSMTtw8xg6s64g/dwH9FbwqZTcUnQjv2dDo2ZHEIOdcR1vUsKvaV4dhtHfSBMQYt6q+kF5goU8aBK+I2TbRW83LD7xHfq1mOjmuP1F+l8mxtdeYEU64bsmvLcbDQz2LOPX3fCuFB/P4KGhhIb0EPH+Y3S8wYPBNJgyavJYcUNDul1rTwXQ2yFXB75UMID4S5XNRu1vzHFIrpvigjII2t+MT0r2xcQ1vMS6aeTz9rfvkdQToU+MelIC/hw14A7VB+HBsbO+h2a7UqNsY9zAiqvmgh3oVPougZM36rZ11jge6G6NHP+ZjgZjYA4IzUeSs/XhbJ7EozyGvF+ZzJ+vkoujjXkdLXr64/0F/p0yN42oILzK1xnQr8rD8ddL2ZgP4sRpMmRdiIU1zcoF41ykgeeaL80I3SM+RBXb+PRNi6KE+hEGzMswCO3RwOGt2C72EqrkRGsuKUGBLIQZ2/2mGkgKEcYRPMZHb9+SzWJquup9lCOwJAr1PvDWfgvgJgPtz/A5GMl8qA9gg6YVJadB23trclSL2gjc3yGEX+4zFHR1ftrNcaWksYqz+8z7+/RuMaktvLYV36VH1DVfQIVDIacDeiPs2eNphKfYuV7KViJ96weUbIE7UgZK0x6Z4ySSqNgCdtPZLU0rdjWFWggyYAMlduS3RdTK35z0uXAPCrW81GqY9CukZ0roLYqbNpWvc1UaguE8Ae2DQj7lvG+bEu0l4Gk0yA//BWNWCyyw2YDYcx2eWKbgSGDaWKBqrzDFzhWP6O8ti/pPDfTuyIoALMD9m8pEV4POh9qVQtiVFpE3meVv4T+vQgCej75XLMEgUh2BWIP+CYrDWsKxV6TwQigxI/R7g1cl4H7QTE0SII8sGo4T5Jdcqz1sYJOqdXsHl5v7zaUnZ3JSqz5rHbfONUoGHatVEabzH3JPeP/sTpapkV2wr7YOW6G11neQkmVT/snh064PyNZvf76XAB+sEv3m4muV2uxk7HHRyJextvLKT9YQKlDdX9NNadx09baoFXvlC3ySQutxAF70RPAaaeQ+rrywKpHqE4jM1Jev6JkpVhC8nwQ3AwvIpBoH9E+gwLDv77mYWRmK5vkTnyqaT4y7LU0esFFGJp5rQuDdDFv7Bpswu0DGDL52yxEnpepotpooeXhUcxGWJizNf24Aiv9GYwS8FJZ6UC4LN4IuUGSSMJuprfcs5mCCvizgCj/PdlpksCtxVEqp9LNWy5AlUtxJ/sI7gm4UWXenC99F+vlCxdvXz5CHHMTxcqCUeMYW4BgOqtSw/s0i9pjHJADIWUT6irLsT6Tp5K06sBkyAB0ZMeg+c9DTBWFNoXo6dHoUP1V7o8aHCrNByW5BvzkkJlmI9SK6PXe79+wDu1wP81PMkWQcBW5lJMNHS/6PnI6+w3wyYGrlL29X+ege8CmJSrAfvFmJ3FLYNrrJckX+Fv8MUYko2IJIo+BylzeT3OxM536wtQQauXNTkW2DoDTuUBzbqCZG9ZaMh6mIfBGgLiY45kmmd5AR2yCrJ5HUFIh6dtW3brZrOJc3P9zwaSqWZBAAuxHwjdS2Wr+Z5dWxK+JSndEhoIzewAfuVhENmuXHLUyJUWpnLg5qg/0DXUlZzMotfSGELMhVIm+/dnQz38ACfcAZnDbbSIKyCXDNe08FBQRCWttgqyjTClZt5Y+DfJCGY6Dqf/3PDCAGjW4/Va/fhnFVr7v5/yLXWReAcXPLCZ6P+h3XfMAPMj7QAHC1Oc3VEGx7Fm6yEEk4rqHknOO9X97Do7SCG3grYqFSyNuniyCMT5E7z3CuCiGMVKGthqpnIRpObRVdeSFFc4NKw6wZ4ykUS66jOMzy8Wl35IjQdjyWVGfy9+pPCGBNHP5pe1lCWkBFam3lv41YzPsggtVqcKcBhWlaIzvVfk2IWMx5KQTSWkVbfVRp6j3xzDKhVjXC0CDgln3UvovG72pIg6g7+kjGbXFk9F8ldb0pWsudNhjytVdm3mAev7vq1uDcLFoGxKMnvhdk1zWt92/ynzOlW+Zo4+ebgZvYd+s0f2vtNyJEHhXi8tqgHZSXshMWmZ4t61Kw2YIhKKoJch/4O7OP3Qa2rt2iTyVFfnuJzem3wjmj2YT0Idq4AGJ0RBpdYAfIc1NjlYVEholYMItHE1JV4S8/W+alVUkCmZR3O0cSrjry1EpcWLo4Ktn/9Bf0Cm280xj5qpoZ3zuyBcfrWWa9ektZIkPwnjucyyI6mE8IjFVbWGK+9/lMvSlAFonfVWLD3ouHu/nElh4IJ4Uybf+y+mmj/Zw3wvFTVvCc8bto/ljT77oGVzMB60364XPeIjiLcnbfnZkEWSjG7hNOqRbeeLKaqra9RjPD6IRV3h1mmO8Lzif3I9e90yFMPYCL9bj4RWlhURPIbwL0hIzKF6kHKP+QN1WKRgBetnXAO9odZhQP3x55rAiPE/Ohwmtw5p+RUO6CK+AhOS9vVzJ3dGAC/qBupDAsEChT3HYFDCPukPe+0bzyMCbbwydtm7fIqBPfBWh+c2tT/xL+vxpMPcUp5FxGSQIG+VeKkdAamfa3CVQuJ3+LCuPZXFUVZBbDz/XK+9Z8UieKAKoj9z3/VQe5rET0h5c2d78+AOO94ZTNApaPX1OVWcrBFNjX+LjxcYMWZ7q51nBa+u3DsBz92ajWNb6lt2S+j1cb2WxTFfTKhjmMg9GdYZHQ2HrxxyqjmqlI53V7qjxDs1WCsIt8ojJokbnrXwfBW+noBpMf2HaHsPooUgyEp56UFIFFBlC+5hahvhQxfuuoqameaCRnRpf2evjOywb4gofuGN1Yrjq/i/jaAa/PklcSDMAiPETdiS6gz2lt9zv2Mnoz/QB9wSKrqn2h0dg15z77KAHqtji9ywLsjdyuncNbaj3oPUUDYrAhRh8uKet/KGjfzjX3woYZkMD0k7kV2ewvnIA6yj4YfrZW87eE5V+7oN33f1P4FyPjvVvwK5/GSd7faCnKyM+CSdFcXtpn1PNUDx63hj8BCdlTtX4hYpyB5oe5be+JHIb+dzbjragF4Z+TIr8P3ud+43EifxPYjz/VqvszPy+ZkY3DBh5sCkHc3LVt9O/hOy7F+0wjPVPSljLAu9/ebUY6asoVffWkRlqOoDL89C6OrOZq1j8iSVe9Qx4lbuz17zoP2aysCvt4+O6QihqsDNUiJpqrsPdAq0U20j3OuKEfrn3IRnWAf1DXQPMib/4RdHeI1U+CYGWui+F39yUbq3KIzGfjbCTHSU1MZN5UgIj00iNckOocYz8zO6UJRptWbf2cRdkMGLUefQe4LHtdFsqDHBoEC59nUZ9D1G6uLIJ0ADxMDYGb07QIzwx36ZBOYjNha2X2y5059QIUttAlK4Z2SAEHV5Bus27osPXotnIJzXs4TkAAVe1hji9WRlzem0f00s1DR/i/mWdIRmsrAguTXUPQ81wAzhVvYlU3vYHtDBF2Oa8dQfi6NtVrB3YPHj0WjcvZK5kONcWggwSQBtHVxfAGCsvEmt1RaT+aSNB7VaiQyDDqws5I3emNMIG6LoJtEqCLTTQv/i6YahJmucEX94LbqFWRxtypGgssTtaIEfa4u8hDddZWOCBCq639+3KVNOJfBteBRA4PT+KNvk0VvUHShplvLI0kqUgJenSDplrFIiu/zcIFfRObR8vQs0Zb4H/uaRiz1B7Y1JwaAfOLNczkr1JtOpPO8H6fe2J/2HeJfdX+IuhuEsaghAiyuvTFrC5V3VV9mkeyKaDBgwx1p+T9+1xTZjdlQsNU4ZIpwh8nbkZrECxGLBVWNFyVeEbtuyNk1HaXaaCc4dqOWzm7qoyhdmPe7ys1LZJCVipJ7PcaPUjW9PiMejHLKwfKx4RxD9kXTaFhOhp6EdI9RHi7ssb5r/RqvML/DVLVzqO+3LAQMlAWcP9TSCSweXXLV2HuOr8fSJz1WWvh2XZWZlNQ0E3BTRs0i53YiYy1zRd3UhLJg2FOV8s00ljDrD+8VLp5XUrtBa8DQvm6HUavw1a8oSx82+TvTeVKwqmnbBcox43sP6zVTR0ciUYMEFAdG8DHAeKk2vgCchgnpQU56D5lczJfRkwpNCHPbxBIl0juOnPYsEpMsFkt6l6KfgHDWIqOM0r8Gp5QtUnyrU2iWFVNIMG2ubzyYxFU0cXk/QCFU0LHT7DfJC0cEZ59HyNeiFKbsrpvcvJ/ALPYVbXE7DLIfex3+8f3EZfRlTWTVZn+kc7h46+/ok4LWILgxGhOkgeO7xv4jLtpG0FnnoQABpmmG3zxxgLP3cBpgL2eJE1R9YyuLnoR6lUGG1FYmXY7HCZDbOLRIIW2ndpt5LiK6meZOxC3oaJfRDmbx9J4nlJYFFpTYFSANo5gReZPpXNz7FHmqbvIJrQ75J0CVffy84VhZ81230VyMXxqToOh7nL+gZqUZVgwbk0SXje59ozH9QXtS2P8UsW3hp/FdkNsiwU7IF+SBMSRWps8Cy1B3kUw6khl/RBfLWZTUX4TR+6/0vgcxq0rrwPhWnC8TDCpssmmUaAfxXfD5HIRP7kWVayxjDL+DZn0LHYrT18WlJ127zCo5+F0uW4NGqx9gpi7jzNAnMlXsBjMJy0caSWPuBW+XZxEYmOD+jpi8RrNKHXNtAyVXJ1UDhtPLvH4CpFhRl8zNGFlWgt+8jdJlodq0MSLEQ5qOqTEFZtXei7HA0XbVxwkIEnOksltRW7D+exnYEqjqvULdhmDvAJvmOx/gTxsMTIJdSniWWz5+2/QAtGhUIisAMPpZVaYrTy+gxIufhL0r540vl6+DcvZM5rULjpcx34bFjEdQ2iAX6xzyGMkNGOGGGMSAeCAXX8ZNHvoTQd2aYHMqpXe8tPl+JfJd3QfjUJUoBFW2a3lOvFGvnnmdgikoNiySW2kyd1gENsEEIPNeFlFDav1GzFerA/vPAhpVhB1pdpKNqdwJzmIjFrEv0bu1tXzilnQ55Xxy9NXVJ+7m3BidcVfW6ay7I+9T6cbf5pCc5CoHWmoB50H23NcC6bu5QnoV7gBcmpJ+IaLanbBmUceYNwuderTRqscAQ2Nj9VyPkxSXY+SFF+x7JW1J4ht/XMJKnLXmjf7jsg40C55XTcbhWlp+flCtyHWunZDKpidgXoiN4dVdx3dWI3+LxnixlEOPVGBBxPWS5hIHefHrcEZ82xtNJWxY4tLYlehcC71ObYeJdMITC/jePQDb4BI71UQBHka/UJ5UeHV38tfMeZyIiuwMQVPan2QNEK0UgW6Desbr/Jfj0kQQD0J6ENvDKDza/Ar9QvxCKML0O88WffDmzeawyK8z6FABA6uV8WIgODSWszeWOXDzECd0pULB+4DRBeFVUZCY2+7fPGiK59V4F2PdCSz+vFT1ikAFi4CJT7nR4q/2oLun9JhR/2Nuj8M2xUpfFTtsIK4A3h4A8s9TyNOwVs8lKFG7mWIVOCgP1IMVFhEfbwPeWRmHn1yXhbRXXcPS1rMWZvVSJGg/Jfw3ZrzrWV7OCv8eW7VrtSbKPqz+aUL9+FSVMwenmox1dDsyS+eWzYk4FiaN5FJhR3UMYhZLmSwtDAe2DnnmfSq++5pEYNnE3TiKpPsYXA/BhnCGqnxgn6bqf4c6enWwUIcIHqUOAOXERgBPO9WBJg8GzRh6G9tZhSOcugEPD1vbXqDKeRdWPrADGUO0ctWkFQchnpG9Jpn1gQJAaQQVRnGWqBYHd99h6mLui8XHx3l2ZRNHi/Rv7qKI9JEwkFlykroe5zstNNwE/OlMrB+QiQWcIeDjYh9Qql4fERDaFXEVOzdODbTsPaadAFhWFNGfPrnv0CChsG9YGyI86f+HDoXbzQSH7yUwgEFq2bi4Uc192kEidoHaOR65ON58FKtmVrinxtMQMiU8A0WLd5u+ovKwLsXyXRwvi7pOf1h+8MkC9Zt1tza/ZplgjRd2pzhuNosIGicT/pR9+cjbod66C7fKyClSy1IPwaP8jBrVAbiqcNkm0vF3vOEGnHbeUsnD/rxHpYH/iS1uEKyyajxyyh1GCxme6BRibK+Rg7PX/rBSm97EEYniQhf4KyZ5ABRlT0iU/FD+SXLDEGJ1RO1owK3fFpibgVK0sWd4py3WXyXTaU10icLac+FfrmK7j22a3CwEZATtAiGt0xlj37phc3aJ/MP2QaAZLAnR7sXd6w9zMCiFotfGqgiKyRCE1ENmqAZHBj7tatcIjfnkZM/giaH0JlHU3ij7L4wtacQd/8O+QjgPneo6yOpwqTq0fWWeBtdb2k72dZWn+wmpCSQae7WeHI4ZlBRsKr1y6iq02cMNAjDhFczOKFfp2qsEAqe33tDa2xFTbXHv5mXAOs/bZQq26rJxcB2LJhdx8e1UPq3TYt8/8sLdq2l+goT/PHenSV6Hxl5So2DAwfwteGDweAxf2vRtMmxiTmbbYzDrkTnUL81FKPh/FxdOMxMGY0OkMSe9nOCOuyxYiEwnK77ye+aZfQ7eer41FI0UnMI2v7A5HHy3vYyYuzo+jt27hXmvFqw/E4tc5AgANWqS6t6FOEAAs3C/LFZtrFXPbF/W9ZyNtJN0CmiC5NaaqvhYRTUYgG5E1F0XKPr04gJ4gTfCzdHhxl3/q5c0O//zZTzw3rxbftRp88N+zjJYCgwJXOSJMz8vR27uqPTIa7pfMVZCHBb6t/YCRzf0K0o7LrKNUrXpkgyHI/+sM7snRqR/7qWwn2dVJMAGQQ4slJ4m5YmUpgxKF0n0Bc8Lvnm44GZ5DDrDAq9HanDu2t3ZvJYHyNyE7loWa8GXMrbXazfMjNWHPqf4BQ6d/28pmASmHN1cNxgXGLSrE30m4jFk1Wy1PZe2MB++z5UuAkQvIWBFxq6JX+hIhREx+ESQ+IzF7dgAnUS366hwa7Fcxj4cdvD2MgADRm4T49LC8g7RIovJPT1eQK4bZ9Y/4DjUTGkYBgAD0AAACLw1uqdiRP8zwi7+V4P906LLT19OcbJEgsWjbUlkIV4kIs6difmdsY2gI2T9XAzDGuk4+QYAEGHxGwAAAAAA=;flipH=0;rotation=-180;flipV=0;" vertex="1" parent="1">
          <mxGeometry x="419" y="631" width="66" height="77.59" as="geometry" />
        </mxCell>
        <mxCell id="jOYCfOh7vDJS4i7N_DWJ-8" value="" style="endArrow=none;dashed=1;html=1;rounded=0;exitX=0.545;exitY=0.691;exitDx=0;exitDy=0;exitPerimeter=0;" edge="1" parent="1" source="jOYCfOh7vDJS4i7N_DWJ-11">
          <mxGeometry width="50" height="50" relative="1" as="geometry">
            <mxPoint x="424.9699999999998" y="645.9982200000009" as="sourcePoint" />
            <mxPoint x="371.9979999999998" y="606.9800000000009" as="targetPoint" />
          </mxGeometry>
        </mxCell>
        <mxCell id="jOYCfOh7vDJS4i7N_DWJ-9" value="" style="endArrow=none;dashed=1;html=1;rounded=0;exitX=0.634;exitY=0.764;exitDx=0;exitDy=0;exitPerimeter=0;" edge="1" parent="1">
          <mxGeometry width="50" height="50" relative="1" as="geometry">
            <mxPoint x="436.97" y="568.001618497844" as="sourcePoint" />
            <mxPoint x="372" y="608" as="targetPoint" />
          </mxGeometry>
        </mxCell>
      </root>
    </mxGraphModel>
  </diagram>
</mxfile>
